<svg width="1920" height="821" viewBox="0 0 1920 821" fill="none" xmlns="http://www.w3.org/2000/svg">
<path d="M-10.6376 310.749C-10.6376 310.749 95.3281 104.544 269.438 229.009C387.218 313.2 448.243 397.669 531.224 418.44C600.964 435.898 677.074 379.56 704.358 339.581C742.404 283.841 732.84 175.983 776.867 124.057C868.889 15.5061 1180.9 165.718 1195.32 367.177" stroke="url(#paint0_linear_721_10654)" stroke-width="0.25" stroke-miterlimit="10"/>
<path d="M-8.92994 312.678C-8.92994 312.678 95.9438 109.697 267.851 228.621C383.955 308.941 445.288 390.296 528.384 410.931C544.134 414.852 560.209 415.094 575.983 412.686C585.913 411.177 595.708 408.634 605.214 405.312C647.052 390.711 683.447 360.6 701.093 336.691C740.289 283.766 733.221 180.088 777.822 129.921C870.494 25.0374 1175.48 168.612 1192.07 358.202" stroke="url(#paint1_linear_721_10654)" stroke-width="0.25" stroke-miterlimit="10"/>
<path d="M-7.22014 314.602C-7.22014 314.602 96.5325 114.838 266.271 228.236C380.692 304.682 442.333 382.923 525.555 403.434C541.175 407.299 557.124 407.632 572.784 405.426C582.653 404.045 592.387 401.697 601.836 398.612C643.426 385.058 679.712 356.47 697.843 333.822C738.195 283.714 733.782 184.332 778.796 135.814C872.459 34.8605 1170.08 171.529 1188.84 349.253" stroke="url(#paint2_linear_721_10654)" stroke-width="0.25" stroke-miterlimit="10"/>
<path d="M-5.51676 316.522C-5.51676 316.522 97.1014 119.969 264.677 227.845C377.4 300.415 439.369 375.552 522.708 395.922C538.206 399.735 554.023 400.155 569.575 398.155C579.379 396.908 589.056 394.749 598.441 391.897C639.788 379.393 675.966 352.328 694.571 330.93C736.078 283.645 734.226 188.493 779.751 141.678C874.22 44.5265 1164.66 174.425 1185.6 340.283" stroke="url(#paint3_linear_721_10654)" stroke-width="0.25" stroke-miterlimit="10"/>
<path d="M-3.80934 318.451C-3.80934 318.451 97.6543 125.099 263.088 227.462C374.105 296.154 436.418 368.187 519.869 388.426C535.245 392.187 550.935 392.698 566.368 390.897C576.117 389.782 585.725 387.815 595.055 385.199C636.155 373.736 672.158 348.142 691.308 328.055C733.816 283.465 734.669 192.674 780.708 147.556C875.969 54.1997 1159.24 177.333 1182.35 331.322" stroke="url(#paint4_linear_721_10654)" stroke-width="0.25" stroke-miterlimit="10"/>
<path d="M-2.09926 320.374C-2.09926 320.374 98.1781 130.222 261.508 227.078C370.791 291.883 433.464 360.814 517.036 380.92C532.282 384.625 547.847 385.227 563.172 383.632C572.859 382.645 582.407 380.873 591.673 378.49C632.525 368.074 668.408 343.991 688.049 325.168C731.682 283.361 735.12 196.839 781.674 153.432C877.719 63.8729 1153.83 180.232 1179.11 322.36" stroke="url(#paint5_linear_721_10654)" stroke-width="0.25" stroke-miterlimit="10"/>
<path d="M-0.389323 322.298C-0.389323 322.298 98.6858 135.343 259.921 226.69C367.457 287.616 430.506 353.446 514.2 373.42C529.323 377.072 544.756 377.762 559.971 376.377C569.596 375.519 579.083 373.941 588.293 371.796C628.902 362.43 664.662 339.849 684.799 322.299C729.556 283.274 735.57 201.023 782.644 159.316C879.45 73.5506 1148.43 183.149 1175.88 313.406" stroke="url(#paint6_linear_721_10654)" stroke-width="0.25" stroke-miterlimit="10"/>
<path d="M1.31824 324.227C1.31824 324.227 99.1593 140.468 258.338 226.31C364.115 283.352 427.555 346.081 511.364 365.919C526.365 369.519 541.662 370.302 556.766 369.114C566.336 368.388 575.756 367.002 584.903 365.089C625.263 356.77 660.91 335.704 681.531 319.415C727.426 283.178 735.993 205.194 783.603 165.188C881.163 83.2131 1143.01 186.051 1172.64 304.439" stroke="url(#paint7_linear_721_10654)" stroke-width="0.25" stroke-miterlimit="10"/>
<path d="M3.02149 326.147C3.02149 326.147 99.5968 145.582 256.745 225.919C360.741 279.085 424.591 338.71 508.521 358.415C523.393 361.959 538.571 362.837 553.561 361.851C563.07 361.253 572.437 360.06 581.519 358.386C621.629 351.113 657.16 331.553 678.27 316.535C725.299 283.078 736.419 209.36 784.569 171.064C882.868 92.8781 1137.6 188.951 1169.4 295.478" stroke="url(#paint8_linear_721_10654)" stroke-width="0.25" stroke-miterlimit="10"/>
<path d="M4.72881 328.076C4.72881 328.076 100.013 150.705 255.162 225.54C357.359 274.835 421.656 331.195 505.685 350.914C520.44 354.377 535.479 355.372 550.356 354.589C559.807 354.127 569.11 353.12 578.128 351.68C617.996 345.457 653.416 327.405 675.009 313.654C723.185 282.983 736.835 213.528 785.525 176.942C884.543 102.536 1132.18 191.862 1166.16 286.517" stroke="url(#paint9_linear_721_10654)" stroke-width="0.25" stroke-miterlimit="10"/>
<path d="M6.43913 329.999C6.43913 329.999 100.395 155.832 253.575 225.152C353.948 270.577 418.699 323.808 502.849 343.414C517.475 346.82 532.385 347.879 547.158 347.329C556.545 346.982 565.789 346.184 574.748 344.985C614.37 339.804 649.68 323.261 671.753 310.782C721.071 282.889 737.252 217.696 786.491 182.818C886.214 112.184 1126.77 194.767 1162.93 277.559" stroke="url(#paint10_linear_721_10654)" stroke-width="0.25" stroke-miterlimit="10"/>
<path d="M8.14898 331.923C8.14898 331.923 100.75 160.965 251.995 224.767C350.522 266.332 415.754 316.432 500.016 335.908C514.519 339.262 529.297 340.408 543.962 340.064C553.288 339.845 562.47 339.242 571.367 338.277C610.739 334.142 645.945 319.111 668.494 307.896C718.971 282.801 737.662 221.861 787.464 188.697C887.878 121.83 1121.36 197.675 1159.69 268.595" stroke="url(#paint11_linear_721_10654)" stroke-width="0.25" stroke-miterlimit="10"/>
<path d="M9.84969 333.848C9.84969 333.848 101.055 166.115 250.399 224.381C347.066 262.099 412.783 309.057 497.17 328.409C511.544 331.708 526.196 332.945 540.748 332.803C550.012 332.713 559.125 332.287 567.974 331.575C607.08 328.42 642.199 314.969 665.23 305.02C716.863 282.709 738.049 226.021 788.418 194.58C889.504 131.47 1115.95 200.585 1156.45 259.639" stroke="url(#paint12_linear_721_10654)" stroke-width="0.25" stroke-miterlimit="10"/>
<path d="M11.5598 335.772C11.5598 335.772 101.34 171.274 248.819 223.997C343.596 257.878 409.837 301.682 494.337 320.903C508.591 324.144 523.114 325.478 537.552 325.538C546.761 325.579 555.809 325.34 564.592 324.867C603.452 322.753 638.472 310.822 661.972 302.134C714.772 282.619 738.441 230.171 789.387 200.451C891.124 141.088 1110.53 203.482 1153.21 250.673" stroke="url(#paint13_linear_721_10654)" stroke-width="0.25" stroke-miterlimit="10"/>
<path d="M13.2699 337.696C13.2699 337.696 101.586 176.461 247.235 223.604C340.105 253.668 406.881 294.295 491.503 313.398C505.628 316.583 520.026 318.007 534.35 318.27C543.497 318.44 552.491 318.398 561.211 318.159C599.824 317.086 634.745 306.676 658.714 299.248C712.687 282.532 738.821 234.315 790.348 206.318C892.734 150.694 1105.12 206.382 1149.97 241.701" stroke="url(#paint14_linear_721_10654)" stroke-width="0.25" stroke-miterlimit="10"/>
<path d="M14.9774 339.624C14.9774 339.624 101.801 181.679 245.652 223.224C336.592 249.486 403.931 286.931 488.665 305.902C502.667 309.035 516.932 310.547 531.149 311.015C540.234 311.314 549.167 311.467 557.824 311.461C596.195 311.438 631.012 302.54 655.45 296.373C710.595 282.461 739.19 238.46 791.309 212.204C894.318 160.301 1099.7 209.293 1146.73 232.754" stroke="url(#paint15_linear_721_10654)" stroke-width="0.25" stroke-miterlimit="10"/>
<path d="M16.6873 341.548C16.6873 341.548 101.992 186.931 244.065 222.836C333.059 245.327 400.976 279.557 485.831 298.396C499.711 301.476 513.843 303.077 527.953 303.75C536.983 304.18 545.849 304.525 554.45 304.755C592.581 305.777 627.295 298.405 652.205 293.493C708.534 282.392 739.572 242.598 792.291 218.081C895.913 169.887 1094.31 212.202 1143.52 223.791" stroke="url(#paint16_linear_721_10654)" stroke-width="0.25" stroke-miterlimit="10"/>
<path d="M18.3906 343.468C18.3906 343.468 102.148 192.219 242.471 222.445C329.503 241.198 398.011 272.186 482.982 290.889C496.732 293.914 510.745 295.608 524.735 296.481C533.703 297.039 542.508 297.579 551.046 298.043C588.928 300.111 623.549 294.263 648.921 290.608C706.433 282.323 739.904 246.719 793.228 223.949C897.445 179.449 1088.87 215.1 1140.25 214.823" stroke="url(#paint17_linear_721_10654)" stroke-width="0.25" stroke-miterlimit="10"/>
<path d="M20.0981 345.397C20.0981 345.397 102.295 197.562 240.889 222.066C325.949 237.101 395.061 264.821 480.153 283.391C493.78 286.364 507.661 288.146 521.543 289.224C530.456 289.914 539.196 290.64 547.675 291.346C585.317 294.458 619.837 290.137 645.674 287.734C704.365 282.27 740.269 250.842 794.204 229.837C898.999 189.015 1083.47 218.011 1137.03 205.871" stroke="url(#paint18_linear_721_10654)" stroke-width="0.25" stroke-miterlimit="10"/>
<path d="M21.8081 347.32C21.8081 347.32 102.425 202.957 239.302 221.678C322.379 233.037 392.103 257.453 477.31 275.888C490.815 278.808 504.57 280.681 518.332 281.958C527.18 282.782 535.862 283.697 544.278 284.636C581.677 288.799 616.101 286.006 642.406 284.85C702.287 282.22 740.606 254.952 795.164 235.709C900.524 198.541 1078.06 220.916 1133.78 196.901" stroke="url(#paint19_linear_721_10654)" stroke-width="0.25" stroke-miterlimit="10"/>
<path d="M23.5156 349.249C23.5156 349.249 102.56 208.426 237.719 221.299C318.817 229.023 389.15 250.094 474.48 268.39C487.854 271.26 501.483 273.224 515.14 274.702C523.934 275.657 532.554 276.767 540.9 277.936C578.057 283.149 612.379 281.882 639.152 281.972C700.214 282.178 740.956 259.055 796.129 241.585C902.054 208.056 1072.65 223.822 1130.54 187.943" stroke="url(#paint20_linear_721_10654)" stroke-width="0.25" stroke-miterlimit="10"/>
<path d="M25.2188 351.17C25.2188 351.17 102.694 213.948 236.126 220.908C315.252 225.034 386.183 242.729 471.631 260.883C484.882 263.701 498.378 265.753 511.929 267.436C520.66 268.52 529.22 269.824 537.51 271.23C574.418 277.489 608.651 277.755 635.884 279.089C698.127 282.13 741.281 263.14 797.086 247.463C903.56 217.553 1067.22 226.729 1127.3 178.982" stroke="url(#paint21_linear_721_10654)" stroke-width="0.25" stroke-miterlimit="10"/>
<path d="M26.929 353.093C26.929 353.093 102.859 219.544 234.546 220.523C311.705 221.093 383.23 235.369 468.804 253.381C481.933 256.145 495.303 258.289 508.733 260.17C517.409 261.386 525.902 262.883 534.128 264.521C570.791 271.836 604.929 273.631 632.632 276.206C696.057 282.096 741.621 267.212 798.055 253.334C905.07 227.025 1061.82 229.632 1124.07 170.019" stroke="url(#paint22_linear_721_10654)" stroke-width="0.25" stroke-miterlimit="10"/>
<path d="M28.6363 355.022C28.6363 355.022 103.058 225.222 232.956 220.14C308.178 217.195 380.268 228.012 465.959 245.882C478.958 248.591 492.2 250.831 505.525 252.913C514.137 254.262 522.571 255.948 530.742 257.823C567.162 266.188 601.193 269.52 629.369 273.33C693.967 282.072 741.944 271.282 799.018 259.215C906.574 236.475 1056.41 232.537 1120.83 161.057" stroke="url(#paint23_linear_721_10654)" stroke-width="0.25" stroke-miterlimit="10"/>
<path d="M30.3464 356.945C30.3464 356.945 103.312 230.973 231.376 219.756C304.684 213.332 377.321 220.656 463.132 238.379C476.006 241.042 489.124 243.367 502.327 245.653C510.884 247.134 519.252 249.026 527.358 251.12C563.523 260.594 597.462 265.398 626.108 270.45C691.879 282.043 742.269 275.334 799.981 265.096C908.076 245.911 1050.99 235.448 1117.59 152.099" stroke="url(#paint24_linear_721_10654)" stroke-width="0.25" stroke-miterlimit="10"/>
<path d="M32.0565 358.869C32.0565 358.869 103.624 236.791 229.789 219.368C301.222 209.504 374.351 213.433 460.289 230.875C473.04 233.504 486.023 235.923 499.122 238.39C507.616 240.019 515.924 242.086 523.974 244.417C559.897 254.941 593.735 261.284 622.847 267.569C689.782 282.016 742.599 279.374 800.941 270.968C909.578 255.314 1045.58 238.347 1114.35 143.135" stroke="url(#paint25_linear_721_10654)" stroke-width="0.25" stroke-miterlimit="10"/>
<path d="M33.7572 360.795C33.7572 360.795 103.997 242.671 228.2 218.985C297.792 205.712 371.394 206.066 457.453 223.375C470.075 225.948 482.938 228.461 495.924 231.131C504.356 232.888 512.603 235.149 520.587 237.719C556.261 249.29 589.998 257.174 619.59 264.697C687.686 282.003 742.929 283.415 801.911 276.853C911.09 264.715 1040.17 241.261 1111.12 134.18" stroke="url(#paint26_linear_721_10654)" stroke-width="0.25" stroke-miterlimit="10"/>
<path d="M35.4672 362.718C35.4672 362.718 104.467 248.605 226.616 218.592C294.421 201.934 368.441 198.687 454.613 215.866C467.112 218.387 479.843 220.987 492.715 223.859C501.092 225.748 509.272 228.201 517.199 231.007C552.624 243.625 586.258 253.054 616.325 261.808C685.58 281.978 743.259 287.423 802.863 282.722C912.59 274.07 1034.75 244.16 1107.87 125.216" stroke="url(#paint27_linear_721_10654)" stroke-width="0.25" stroke-miterlimit="10"/>
<path d="M37.1747 364.647C37.1747 364.647 105.012 254.588 225.033 218.213C291.091 198.19 365.488 191.328 451.784 208.368C464.153 210.834 476.759 213.525 489.523 216.603C497.839 218.62 505.957 221.268 513.822 224.308C549.007 237.969 582.522 248.943 613.07 258.93C683.48 281.956 743.597 291.428 803.836 288.601C914.124 283.423 1029.34 247.063 1104.64 116.252" stroke="url(#paint28_linear_721_10654)" stroke-width="0.25" stroke-miterlimit="10"/>
<path d="M38.8847 366.571C38.8847 366.571 105.655 260.605 223.446 217.825C287.818 194.447 362.527 183.951 448.941 200.864C461.188 203.278 473.661 206.057 486.312 209.336C494.572 211.486 502.626 214.32 510.431 217.601C545.367 232.31 578.763 244.86 609.809 256.049C681.34 282.02 743.941 295.423 804.802 294.477C915.653 292.753 1023.93 249.968 1101.39 107.291" stroke="url(#paint29_linear_721_10654)" stroke-width="0.25" stroke-miterlimit="10"/>
<path d="M40.588 368.491C40.588 368.491 106.382 266.636 221.859 217.437C284.583 190.709 359.572 176.578 446.105 193.364C458.229 195.724 470.576 198.594 483.113 202.077C491.309 204.359 499.311 207.386 507.047 210.898C541.734 226.653 575.028 240.73 606.548 253.168C679.235 281.956 744.29 299.407 805.758 300.355C917.206 302.067 1018.51 252.879 1098.16 98.3331" stroke="url(#paint30_linear_721_10654)" stroke-width="0.25" stroke-miterlimit="10"/>
<path d="M42.2955 370.42C42.2955 370.42 211.685 115.335 479.908 194.814C488.042 197.225 495.983 200.447 503.663 204.195C761.062 329.767 948.131 387.937 1094.93 89.3698" stroke="url(#paint31_linear_721_10654)" stroke-width="0.25" stroke-miterlimit="10"/>
<path d="M46.9433 371.681C47.1077 370.059 76.8393 324.891 130.041 278.093C182.843 231.649 258.154 183.54 352.782 174.82C391.573 171.143 433.721 174.105 478.789 186.63C486.956 188.886 494.927 191.944 502.668 195.53C515.107 201.298 527.408 206.96 539.565 212.494C617.922 248.268 689.403 278.248 754.901 292.201C783.244 298.155 810.525 301.113 836.867 300.323C901.237 298.516 960.073 274.715 1014.99 217.083C1044.91 185.687 1073.17 143.951 1099.56 91.2376" stroke="url(#paint32_linear_721_10654)" stroke-width="0.25" stroke-miterlimit="10"/>
<path d="M51.5887 372.947C51.9133 369.696 81.2809 324.636 132.827 277.542C184.948 229.92 258.605 180.37 352.071 169.37C390.55 164.839 432.576 166.759 477.67 178.46C485.862 180.563 493.879 183.458 501.674 186.88C514.189 192.387 526.599 197.839 538.879 203.22C617.72 237.988 689.418 269.173 754.967 284.469C783.194 291.059 810.37 294.559 836.708 294.579C901.15 294.619 960.627 273.683 1017.11 218.031C1048.24 187.363 1077.45 145.607 1104.21 93.126" stroke="url(#paint33_linear_721_10654)" stroke-width="0.25" stroke-miterlimit="10"/>
<path d="M56.2274 374.21C56.7164 369.338 85.7035 324.352 135.606 276.988C187.037 228.171 259.021 177.064 351.356 163.912C389.515 158.475 431.404 159.485 476.548 170.281C484.766 172.245 492.829 174.958 500.677 178.22C513.276 183.466 525.791 188.684 538.192 193.933C617.569 227.535 689.446 259.986 755.03 276.729C783.138 283.907 810.229 288.026 836.548 288.821C901.088 290.772 961.222 272.651 1019.24 218.96C1051.59 189.015 1081.73 147.252 1108.86 94.9916" stroke="url(#paint34_linear_721_10654)" stroke-width="0.25" stroke-miterlimit="10"/>
<path d="M60.8753 375.471C61.522 368.974 90.1138 324.042 138.395 276.431C189.128 226.402 259.443 173.747 350.647 158.456C388.487 152.114 430.26 152.153 475.433 162.105C483.672 163.922 491.783 166.467 499.692 169.567C512.374 174.556 524.995 179.555 537.516 184.657C617.391 217.207 689.474 250.799 755.097 268.997C783.088 276.758 810.083 281.504 836.389 283.076C901.034 286.943 961.857 271.638 1021.36 219.909C1054.96 190.693 1086.01 148.908 1113.5 96.8765" stroke="url(#paint35_linear_721_10654)" stroke-width="0.25" stroke-miterlimit="10"/>
<path d="M65.5207 376.738C66.3318 368.62 94.5001 323.715 141.18 275.88C191.204 224.613 259.867 170.425 349.945 153.004C387.462 145.748 429.121 144.83 474.324 153.933C482.595 155.6 490.737 157.976 498.711 160.91C511.469 165.638 524.201 170.421 536.842 175.376C617.209 206.871 689.507 241.601 755.173 261.263C783.041 269.605 809.963 274.98 836.249 277.328C900.995 283.116 962.542 270.643 1023.49 220.85C1058.35 192.368 1090.3 150.557 1118.16 98.7521" stroke="url(#paint36_linear_721_10654)" stroke-width="0.25" stroke-miterlimit="10"/>
<path d="M70.1594 378.001C71.1307 368.253 98.8607 323.355 143.96 275.326C193.272 222.807 260.281 167.092 349.23 147.546C386.425 139.371 427.97 137.494 473.202 145.755C481.497 147.268 489.685 149.482 497.713 152.25C510.556 156.717 523.391 161.285 536.152 166.094C617.005 196.544 689.521 232.394 755.229 253.52C782.98 262.445 809.813 268.449 836.079 271.571C900.935 279.284 963.242 269.649 1025.6 221.787C1061.75 194.048 1094.57 152.205 1122.8 100.625" stroke="url(#paint37_linear_721_10654)" stroke-width="0.25" stroke-miterlimit="10"/>
<path d="M74.8072 379.262C75.9429 367.893 103.216 322.972 146.748 274.77C195.327 220.975 260.709 163.745 348.522 142.09C385.402 133 426.823 130.153 472.086 137.579C480.412 138.943 488.639 140.99 496.722 143.594C509.647 147.804 522.586 152.158 535.478 156.813C616.811 186.215 689.543 223.184 755.305 245.786C782.929 255.282 809.683 261.928 835.929 265.825C900.9 275.464 963.99 268.691 1027.73 222.728C1065.18 195.733 1098.86 153.859 1127.46 102.506" stroke="url(#paint38_linear_721_10654)" stroke-width="0.25" stroke-miterlimit="10"/>
<path d="M79.4527 380.529C80.7461 367.535 107.538 322.574 149.527 274.216C197.366 219.129 261.126 160.387 347.807 136.632C384.362 126.613 425.675 122.813 470.957 129.397C479.308 130.608 487.583 132.487 495.717 134.932C508.719 138.882 521.763 143.016 534.782 147.528C616.601 175.885 689.548 213.96 755.358 238.048C782.865 248.113 809.538 255.406 835.76 260.069C900.841 271.646 964.748 267.73 1029.85 223.664C1068.61 197.421 1103.13 155.506 1132.09 104.379" stroke="url(#paint39_linear_721_10654)" stroke-width="0.25" stroke-miterlimit="10"/>
<path d="M84.0913 381.792C85.5491 367.177 111.838 322.152 152.306 273.661C199.38 217.264 261.539 157.021 347.092 131.174C383.33 120.225 424.527 115.472 469.835 121.219C478.217 122.28 486.524 123.99 494.726 126.276C507.813 129.964 520.96 133.884 534.099 138.249C616.399 165.573 689.563 204.733 755.418 230.313C782.8 240.945 809.399 248.887 835.594 254.321C900.795 267.834 965.544 266.809 1031.95 224.606C1072.05 199.129 1107.39 157.156 1136.73 106.256" stroke="url(#paint40_linear_721_10654)" stroke-width="0.25" stroke-miterlimit="10"/>
<path d="M88.7393 383.053C90.3574 366.808 116.119 321.7 155.095 273.105C201.397 215.374 261.957 153.643 346.383 125.718C382.299 113.837 423.38 108.131 468.719 113.043C477.132 113.954 485.478 115.499 493.735 117.62C506.898 121.047 520.155 124.757 533.415 128.97C616.197 155.26 689.573 195.498 755.485 222.581C782.749 233.782 809.27 242.379 835.438 248.571C900.76 264.034 966.383 265.901 1034.09 225.553C1075.53 200.85 1111.69 158.813 1141.38 108.139" stroke="url(#paint41_linear_721_10654)" stroke-width="0.25" stroke-miterlimit="10"/>
<path d="M93.3846 384.32C95.167 366.453 120.38 321.24 157.88 272.554C203.386 213.477 262.376 150.265 345.675 120.263C381.27 107.443 422.241 100.788 467.604 104.868C476.041 105.626 484.433 106.988 492.744 108.964C505.993 112.11 519.342 115.627 532.735 119.686C615.988 144.944 689.595 186.255 755.55 214.835C782.692 226.597 809.134 235.854 835.285 242.816C900.727 260.229 967.247 265.011 1036.21 226.482C1079.02 202.561 1115.96 160.455 1146.03 110.004" stroke="url(#paint42_linear_721_10654)" stroke-width="0.25" stroke-miterlimit="10"/>
<path d="M98.0233 385.583C99.9635 366.092 124.617 320.761 160.66 271.999C205.348 211.548 262.779 146.867 344.964 114.813C380.232 101.051 421.096 93.4421 466.486 96.6976C474.954 97.3057 483.385 98.5023 491.751 100.313C505.078 103.194 518.537 106.5 532.049 110.412C615.781 134.641 689.61 177.009 755.615 207.109C782.634 219.432 809 229.357 835.123 237.077C900.681 256.45 968.13 264.164 1038.33 227.435C1082.52 204.317 1120.24 162.117 1150.68 111.892" stroke="url(#paint43_linear_721_10654)" stroke-width="0.25" stroke-miterlimit="10"/>
<path d="M102.671 386.844C104.776 365.732 128.836 320.254 163.448 271.443C207.294 209.604 263.185 143.465 344.258 109.352C379.2 94.6493 419.96 86.0943 465.373 88.5172C473.865 88.9723 482.342 90.0063 490.762 91.6524C504.172 94.2759 517.734 97.3681 531.369 101.128C615.574 124.34 689.631 167.753 755.677 199.369C782.577 212.247 808.868 222.842 834.963 231.319C900.646 252.65 969.033 263.314 1040.44 228.367C1086.02 206.062 1124.51 163.759 1155.31 113.761" stroke="url(#paint44_linear_721_10654)" stroke-width="0.25" stroke-miterlimit="10"/>
<path d="M107.317 388.11C109.581 365.368 133.031 319.741 166.234 270.892C209.213 207.647 263.587 140.053 343.55 103.897C378.167 88.2469 418.82 78.7373 464.257 80.3416C472.777 80.6382 481.29 81.5117 489.778 82.9994C503.263 85.3628 516.935 88.2442 530.692 91.8522C615.371 114.046 689.661 158.494 755.751 191.64C782.534 205.068 808.744 216.343 834.811 225.577C900.614 248.878 969.969 262.512 1042.57 229.318C1089.55 207.839 1128.79 165.424 1159.97 115.652" stroke="url(#paint45_linear_721_10654)" stroke-width="0.25" stroke-miterlimit="10"/>
<path d="M111.955 389.374C114.384 365.01 137.2 319.217 169.013 270.338C211.1 205.669 263.976 136.634 342.832 98.4437C377.121 81.8382 417.668 71.388 463.133 72.1683C471.683 72.3151 480.237 73.0173 488.777 74.3456C502.348 76.4468 516.114 79.1162 530.003 82.57C615.161 103.749 689.686 149.226 755.813 183.9C782.477 197.883 808.6 209.834 834.651 219.819C900.571 245.094 970.911 261.713 1044.69 230.248C1093.09 209.609 1133.08 167.064 1164.61 117.517" stroke="url(#paint46_linear_721_10654)" stroke-width="0.25" stroke-miterlimit="10"/>
<path d="M116.603 390.635C119.19 364.647 141.354 318.672 171.799 269.787C212.971 203.676 264.36 133.208 342.123 92.9886C376.075 75.4298 416.528 64.0315 462.017 63.9931C470.592 63.9869 479.191 64.5264 487.789 65.6845C501.442 67.5289 515.311 69.9843 529.322 73.2861C614.951 93.4527 689.717 139.948 755.876 176.16C782.425 190.688 808.462 203.329 834.494 214.07C900.526 241.315 971.873 260.943 1046.82 231.191C1096.64 211.41 1137.36 168.715 1169.27 119.395" stroke="url(#paint47_linear_721_10654)" stroke-width="0.25" stroke-miterlimit="10"/>
<path d="M121.249 391.901C124 364.292 145.482 318.113 174.584 269.236C214.806 201.672 264.747 129.775 341.415 87.5329C375.031 69.0154 415.382 56.6711 460.895 55.8141C469.503 55.6527 478.132 56.0285 486.791 57.0249C500.52 58.6093 514.496 60.8591 528.639 64.0068C614.736 83.1662 689.748 130.67 755.943 168.428C782.375 183.506 808.329 196.832 834.338 208.319C900.481 237.55 972.847 260.199 1048.94 232.134C1100.2 213.228 1141.65 170.369 1173.91 121.275" stroke="url(#paint48_linear_721_10654)" stroke-width="0.25" stroke-miterlimit="10"/>
<path d="M125.887 393.165C128.799 363.926 149.586 317.552 177.357 268.679C216.599 199.635 265.107 126.331 340.691 82.0769C373.965 62.5974 414.226 49.3136 459.763 47.6379C468.396 47.3234 477.072 47.5505 485.784 48.3682C499.595 49.7149 513.675 51.7315 527.94 54.7271C614.512 72.8826 689.772 121.389 755.987 160.692C782.305 176.315 808.173 190.331 834.157 202.571C900.412 233.787 973.801 259.479 1051.03 233.075C1103.73 215.061 1145.89 172.023 1178.54 123.156" stroke="url(#paint49_linear_721_10654)" stroke-width="0.25" stroke-miterlimit="10"/>
<path d="M130.533 394.431C133.608 363.571 153.671 316.98 180.143 268.128C218.369 197.593 265.477 122.884 339.982 76.6217C372.917 56.1749 413.079 41.9537 458.648 39.4625C467.307 38.9897 476.026 39.0594 484.8 39.7156C498.693 40.8054 512.873 42.6132 527.266 45.4462C614.31 62.6031 689.824 112.101 756.065 152.953C782.278 169.119 808.051 183.827 834.01 196.819C900.371 230.017 974.804 258.775 1053.17 234.011C1107.31 216.903 1150.19 173.669 1183.19 125.028" stroke="url(#paint50_linear_721_10654)" stroke-width="0.25" stroke-miterlimit="10"/>
<path d="M135.18 395.692C138.414 363.207 157.739 316.393 182.931 267.571C220.106 195.536 265.836 119.425 339.28 71.1696C371.867 49.7577 411.942 34.5916 457.539 31.2904C466.226 30.6591 474.987 30.5715 483.815 31.0628C497.787 31.8873 512.074 33.4896 526.59 36.1705C614.113 52.332 689.876 102.814 756.132 145.221C782.233 161.926 807.909 177.333 833.853 191.069C900.322 226.263 975.798 258.093 1055.29 234.954C1110.89 218.769 1154.47 175.32 1187.84 126.902" stroke="url(#paint51_linear_721_10654)" stroke-width="0.25" stroke-miterlimit="10"/>
<path d="M139.819 396.956C143.217 362.849 161.777 315.799 185.71 267.017C221.801 193.465 266.179 115.965 338.565 65.711C370.797 43.3307 410.784 27.2197 456.417 23.1116C465.128 22.3273 473.931 22.0685 482.818 22.4035C496.872 22.9711 511.26 24.3647 525.9 26.8883C613.893 42.0565 689.924 93.5172 756.192 137.486C782.188 154.734 807.766 170.838 833.695 185.325C900.263 222.511 976.794 257.439 1057.42 235.902C1114.47 220.657 1158.75 176.976 1192.49 128.79" stroke="url(#paint52_linear_721_10654)" stroke-width="0.25" stroke-miterlimit="10"/>
<path d="M144.465 398.222C148.023 362.486 165.799 315.203 188.496 266.466C223.462 191.378 266.529 112.509 337.857 60.2558C369.736 36.9018 409.64 19.8546 455.301 14.9363C464.046 13.9969 472.885 13.5774 481.827 13.7477C495.964 14.0584 510.454 15.238 525.217 17.6096C613.684 31.7931 689.981 84.2189 756.259 129.754C782.146 147.536 807.621 164.349 833.539 179.575C900.201 218.751 977.798 256.802 1059.53 236.842C1118.05 222.551 1163.02 178.633 1197.13 130.667" stroke="url(#paint53_linear_721_10654)" stroke-width="0.25" stroke-miterlimit="10"/>
<path d="M149.113 399.483C152.835 362.126 169.808 314.602 191.284 265.909C225.087 189.279 266.861 109.037 337.148 54.8005C368.675 30.4728 408.489 12.4859 454.185 6.76071C462.957 5.66289 471.839 5.08622 480.836 5.09163C495.051 5.13694 509.646 6.11635 524.536 8.32523C613.48 21.5187 690.049 74.9129 756.324 122.009C782.106 140.333 807.477 157.84 833.378 173.817C900.138 214.99 978.798 256.176 1061.66 237.771C1121.64 224.454 1167.3 180.269 1201.78 132.536" stroke="url(#paint54_linear_721_10654)" stroke-width="0.25" stroke-miterlimit="10"/>
<path d="M153.751 400.747C157.631 361.765 173.781 313.989 194.064 265.355C226.661 187.17 267.184 105.568 336.433 49.342C367.598 24.0428 407.334 5.10892 453.063 -1.4178C461.862 -2.67401 470.787 -3.40804 479.845 -3.56424C494.142 -3.77579 508.838 -3.00512 523.853 -0.953592C613.275 11.2638 690.116 65.6124 756.391 114.277C782.08 133.137 807.331 151.351 833.219 168.072C900.061 211.243 979.793 255.574 1063.78 238.72C1125.22 226.39 1171.59 181.929 1206.43 134.415" stroke="url(#paint55_linear_721_10654)" stroke-width="0.25" stroke-miterlimit="10"/>
<path d="M158.396 402.013C162.441 361.41 177.749 313.387 196.849 264.804C228.205 185.052 267.507 102.098 335.725 43.8867C366.524 17.6073 406.177 -2.26286 451.941 -9.59647C460.764 -11.0057 469.73 -11.911 478.847 -12.2235C493.23 -12.6972 508.03 -12.1266 523.163 -10.2357C613.058 0.997028 690.185 56.3065 756.444 106.539C782.03 125.936 807.173 144.855 833.05 162.316C899.98 207.487 980.784 254.983 1065.89 239.656C1128.8 228.327 1175.85 183.573 1211.07 136.292" stroke="url(#paint56_linear_721_10654)" stroke-width="0.25" stroke-miterlimit="10"/>
<path d="M163.044 403.274C167.249 361.041 181.697 312.776 199.638 264.248C229.7 182.918 267.826 98.6198 335.016 38.4312C365.447 11.1771 405.029 -9.63693 450.825 -17.7721C459.669 -19.3429 468.685 -20.4023 477.856 -20.8796C492.315 -21.6134 507.222 -21.2483 522.48 -19.5147C612.853 -9.25816 690.263 46.9983 756.511 98.8069C782.001 118.744 807.027 138.366 832.898 156.575C899.91 203.742 981.777 254.419 1068.01 240.605C1132.38 230.288 1180.13 185.237 1215.71 138.177" stroke="url(#paint57_linear_721_10654)" stroke-width="0.25" stroke-miterlimit="10"/>
<path d="M167.69 404.541C172.059 360.686 185.626 312.169 202.423 263.697C231.154 180.784 268.128 95.1407 334.315 32.9792C364.373 4.74177 403.881 -17.0107 449.717 -25.9442C458.587 -27.6734 467.646 -28.8901 476.874 -29.5376C491.415 -30.5283 506.423 -30.372 521.809 -28.8011C612.667 -19.5174 690.362 37.6807 756.59 91.0678C781.98 111.537 806.894 131.869 832.753 150.818C899.836 199.989 982.771 253.856 1070.14 241.537C1135.97 232.254 1184.42 186.878 1220.36 140.046" stroke="url(#paint58_linear_721_10654)" stroke-width="0.25" stroke-miterlimit="10"/>
<path d="M172.328 405.804C176.855 360.325 189.533 311.558 205.196 263.139C232.547 178.64 268.416 91.6607 333.59 27.523C363.273 -1.69241 402.673 -24.4658 448.585 -34.1205C457.474 -36.0253 466.584 -37.3822 475.867 -38.1945C490.487 -39.4506 505.602 -39.4666 521.117 -38.0776C612.462 -29.6203 690.44 28.3728 756.643 83.3298C781.94 104.334 806.729 125.371 832.581 145.067C899.745 196.235 983.745 253.317 1072.26 242.477C1139.54 234.236 1188.69 188.525 1225.01 141.92" stroke="url(#paint59_linear_721_10654)" stroke-width="0.25" stroke-miterlimit="10"/>
<path d="M176.976 407.065C181.668 359.965 193.424 310.945 207.984 262.583C233.904 176.485 268.712 88.1782 332.884 22.0622C362.192 -8.13117 401.533 -31.8227 447.472 -42.3015C456.392 -44.3561 465.537 -45.8874 474.885 -46.8528C489.588 -48.3657 504.806 -48.5958 520.443 -47.3589C612.268 -39.9162 690.546 19.0581 756.719 75.5957C781.929 97.1382 806.564 118.905 832.434 139.315C899.603 192.555 984.732 252.783 1074.39 243.418C1143.14 236.236 1192.99 190.177 1229.66 143.797" stroke="url(#paint60_linear_721_10654)" stroke-width="0.25" stroke-miterlimit="10"/>
<path d="M181.622 408.331C186.473 359.601 197.301 310.346 210.77 262.032C235.22 174.33 268.907 84.634 332.176 16.607C361.06 -14.6007 400.384 -39.1772 446.357 -50.4768C455.301 -52.6844 464.491 -54.3784 473.894 -55.5086C488.679 -57.2784 504 -57.7225 519.76 -56.6376C612.072 -50.2063 690.707 9.69778 756.779 67.8609C781.925 89.9129 806.417 112.402 832.269 133.567C899.535 188.772 985.687 252.267 1076.5 244.355C1146.7 238.239 1197.25 191.827 1234.3 145.674" stroke="url(#paint61_linear_721_10654)" stroke-width="0.25" stroke-miterlimit="10"/>
<path d="M186.26 409.595C191.276 359.243 201.159 309.751 213.549 261.478C236.479 172.175 269.268 81.2224 331.458 11.154C374.315 -37.1293 441.253 -70.4639 519.068 -65.9142C611.857 -60.4923 690.746 0.436935 756.837 60.1314C781.87 82.742 806.271 105.899 832.107 127.828C899.471 184.998 986.64 251.77 1078.62 245.309C1150.26 240.279 1201.53 193.492 1238.95 147.559" stroke="url(#paint62_linear_721_10654)" stroke-width="0.25" stroke-miterlimit="10"/>
<path d="M2034.43 72.4107C2034.43 72.4107 1943.73 285.774 1761.03 174.294C1637.45 98.8879 1570.44 19.0777 1486.17 4.39367C1415.35 -7.94783 1343.53 53.7739 1319.23 95.6304C1285.33 153.988 1302.71 260.866 1262.58 315.854C1178.69 430.808 856.58 303.674 827.562 103.796" stroke="url(#paint63_linear_721_10654)" stroke-width="0.25" stroke-miterlimit="10"/>
<path d="M2032.58 70.6109C2032.58 70.6109 1942.74 280.678 1762.64 174.566C1641.01 102.898 1573.92 26.2165 1489.55 11.6764C1473.56 8.91089 1457.51 9.8385 1441.95 13.3867C1432.15 15.6137 1422.57 18.8619 1413.33 22.8659C1372.66 40.4692 1338.55 73.1465 1322.69 98.2746C1287.45 153.909 1302.03 256.8 1261.2 310.075C1176.4 421.418 861.779 300.394 831.449 112.511" stroke="url(#paint64_linear_721_10654)" stroke-width="0.25" stroke-miterlimit="10"/>
<path d="M2030.74 68.8167C2030.74 68.8167 1941.78 275.594 1764.25 174.835C1644.57 106.909 1577.41 33.3554 1492.92 18.9483C1477.06 16.2288 1461.12 17.0565 1445.67 20.3947C1435.92 22.4891 1426.39 25.5386 1417.19 29.3026C1376.69 45.8439 1342.58 76.9944 1326.14 100.9C1289.54 153.808 1301.17 252.607 1259.8 304.269C1173.72 411.764 866.954 297.092 835.322 121.202" stroke="url(#paint65_linear_721_10654)" stroke-width="0.25" stroke-miterlimit="10"/>
<path d="M2028.9 67.0254C2028.9 67.0254 1940.84 270.518 1765.87 175.109C1648.17 110.925 1580.9 40.4915 1496.3 26.2339C1480.57 23.5577 1464.76 24.2882 1449.4 27.4137C1439.71 29.37 1430.21 32.2263 1421.06 35.753C1380.73 51.2296 1346.62 80.8534 1329.62 103.547C1291.66 153.724 1300.42 248.489 1258.42 298.49C1171.26 402.252 872.147 293.809 839.211 129.912" stroke="url(#paint66_linear_721_10654)" stroke-width="0.25" stroke-miterlimit="10"/>
<path d="M2027.06 65.2257C2027.06 65.2257 1939.92 265.442 1767.48 175.375C1651.76 114.935 1584.38 47.6222 1499.68 33.5029C1484.07 30.8701 1468.38 31.5007 1453.12 34.4189C1443.48 36.2399 1434.04 38.9002 1424.92 42.1869C1384.77 56.607 1350.72 84.7506 1333.08 106.177C1293.93 153.738 1299.67 244.352 1257.04 292.697C1168.81 392.731 877.343 290.516 843.096 138.614" stroke="url(#paint67_linear_721_10654)" stroke-width="0.25" stroke-miterlimit="10"/>
<path d="M2025.21 63.4317C2025.21 63.4317 1939.02 260.371 1769.08 175.644C1655.38 118.954 1587.86 54.7612 1503.05 40.7832C1487.57 38.1964 1472.01 38.7271 1456.84 41.4325C1447.25 43.1209 1437.85 45.5825 1428.78 48.632C1388.8 61.99 1354.76 88.6178 1336.54 108.819C1296.06 153.687 1298.92 240.231 1255.65 286.907C1166.37 383.21 882.528 287.23 846.98 147.316" stroke="url(#paint68_linear_721_10654)" stroke-width="0.25" stroke-miterlimit="10"/>
<path d="M2023.37 61.6377C2023.37 61.6377 1938.14 255.3 1770.69 175.915C1659.01 122.967 1591.35 61.8947 1506.42 48.0579C1491.07 45.5145 1475.63 45.948 1460.56 48.4351C1451.02 49.9909 1441.67 52.2538 1432.64 55.0633C1392.82 67.3566 1358.8 92.4769 1339.99 111.444C1298.19 153.619 1298.17 236.09 1254.25 281.109C1163.94 373.684 887.704 283.928 850.851 156.012" stroke="url(#paint69_linear_721_10654)" stroke-width="0.25" stroke-miterlimit="10"/>
<path d="M2021.52 59.838C2021.52 59.838 1937.3 250.223 1772.3 176.179C1662.66 126.977 1594.82 69.0254 1509.8 55.3325C1494.57 52.8325 1479.26 53.1632 1464.28 55.4458C1454.79 56.8663 1445.5 58.9333 1436.51 61.5055C1396.86 72.7368 1362.84 96.3386 1343.46 114.083C1300.32 153.56 1297.44 231.961 1252.87 275.321C1161.52 364.172 892.898 280.64 854.733 164.72" stroke="url(#paint70_linear_721_10654)" stroke-width="0.25" stroke-miterlimit="10"/>
<path d="M2019.68 58.0467C2019.68 58.0467 1936.49 245.154 1773.92 176.453C1666.33 130.987 1598.32 76.1616 1513.18 62.6099C1498.09 60.1559 1482.88 60.384 1468.01 62.4566C1458.57 63.7445 1449.31 65.6156 1440.37 67.945C1400.9 78.1143 1366.88 100.206 1346.92 116.719C1302.45 153.506 1296.72 227.837 1251.48 269.531C1159.12 354.656 898.084 277.355 858.618 173.422" stroke="url(#paint71_linear_721_10654)" stroke-width="0.25" stroke-miterlimit="10"/>
<path d="M2017.84 56.2471C2017.84 56.2471 1935.7 240.075 1775.52 176.716C1670.01 134.98 1601.79 83.4439 1516.55 69.8845C1501.58 67.5042 1486.51 67.6048 1471.73 69.4673C1462.34 70.6144 1453.13 72.2951 1444.24 74.3872C1404.93 83.4917 1370.92 104.07 1350.38 119.355C1304.56 153.447 1296 223.71 1250.1 263.739C1156.75 345.146 903.273 274.058 862.502 182.123" stroke="url(#paint72_linear_721_10654)" stroke-width="0.25" stroke-miterlimit="10"/>
<path d="M2016 54.4527C2016 54.4527 1934.95 234.989 1777.13 176.988C1673.73 138.979 1605.28 90.5964 1519.92 77.1589C1505.09 74.8247 1490.14 74.8529 1475.45 76.4751C1466.11 77.5034 1456.95 78.9716 1448.1 80.8182C1408.96 88.8662 1374.95 107.932 1353.84 121.983C1306.68 153.387 1295.28 219.584 1248.71 257.948C1154.38 335.644 908.461 270.767 866.38 190.823" stroke="url(#paint73_linear_721_10654)" stroke-width="0.25" stroke-miterlimit="10"/>
<path d="M2014.15 52.659C2014.15 52.659 1934.22 229.895 1778.74 177.257C1677.45 142.964 1608.75 97.7385 1523.3 84.4394C1508.59 82.1485 1493.76 82.0795 1479.16 83.489C1469.88 84.3847 1460.76 85.6542 1451.96 87.2635C1412.99 94.2495 1378.97 111.8 1357.3 124.624C1308.78 153.322 1294.57 215.46 1247.31 252.156C1152.02 326.146 913.641 267.474 870.255 199.527" stroke="url(#paint74_linear_721_10654)" stroke-width="0.25" stroke-miterlimit="10"/>
<path d="M2012.31 50.8621C2012.31 50.8621 1933.54 224.782 1780.36 177.525C1681.21 146.935 1612.25 104.877 1526.68 91.7113C1512.1 89.4664 1497.4 89.2975 1482.9 90.497C1473.66 91.2601 1464.61 92.3473 1455.83 93.7002C1417.06 99.6902 1383.01 115.659 1360.76 127.255C1310.89 153.26 1293.88 211.338 1245.93 246.358C1149.7 316.649 918.831 264.177 874.142 208.224" stroke="url(#paint75_linear_721_10654)" stroke-width="0.25" stroke-miterlimit="10"/>
<path d="M2010.47 49.0677C2010.47 49.0677 1932.88 219.657 1781.96 177.794C1684.97 150.892 1615.72 112.019 1530.05 98.9912C1515.6 96.7952 1501.02 96.5209 1486.61 97.5103C1477.42 98.1381 1468.42 99.0349 1459.69 100.145C1421.09 105.079 1387.03 119.523 1364.22 129.896C1312.98 153.198 1293.19 207.228 1244.54 240.573C1147.38 307.174 924.023 260.894 878.024 216.931" stroke="url(#paint76_linear_721_10654)" stroke-width="0.25" stroke-miterlimit="10"/>
<path d="M2008.62 47.2734C2008.62 47.2734 1932.26 214.501 1783.57 178.071C1688.76 154.838 1619.21 119.171 1533.42 106.271C1519.1 104.121 1504.64 103.747 1490.33 104.526C1481.2 105.022 1472.23 105.717 1463.55 106.59C1425.12 110.467 1391.05 123.387 1367.68 132.538C1315.07 153.133 1292.51 203.123 1243.15 234.791C1145.08 297.711 929.208 257.609 881.904 225.644" stroke="url(#paint77_linear_721_10654)" stroke-width="0.25" stroke-miterlimit="10"/>
<path d="M2006.78 45.4738C2006.78 45.4738 1931.67 209.313 1785.18 178.334C1692.57 158.753 1622.69 126.302 1536.8 113.54C1522.6 111.434 1508.27 110.962 1494.05 111.529C1484.97 111.891 1476.05 112.388 1467.42 113.024C1429.15 115.836 1395.07 127.241 1371.15 135.168C1317.16 153.052 1291.84 199.015 1241.76 228.99C1142.8 288.244 934.398 254.312 885.786 234.332" stroke="url(#paint78_linear_721_10654)" stroke-width="0.25" stroke-miterlimit="10"/>
<path d="M2004.94 43.6799C2004.94 43.6799 1931.1 204.089 1786.79 178.606C1696.4 162.644 1626.17 133.441 1540.17 120.821C1526.1 118.757 1511.89 118.189 1497.77 118.543C1488.73 118.77 1479.86 119.071 1471.27 119.466C1433.17 121.219 1399.08 131.095 1374.59 137.805C1319.22 152.971 1291.16 194.916 1240.36 223.2C1140.51 278.8 939.562 251.019 889.646 243.037" stroke="url(#paint79_linear_721_10654)" stroke-width="0.25" stroke-miterlimit="10"/>
<path d="M2003.1 41.8887C2003.1 41.8887 1930.56 198.826 1788.41 178.88C1700.24 166.504 1629.66 140.578 1543.56 128.101C1529.62 126.084 1515.52 125.412 1501.51 125.559C1492.52 125.654 1483.7 125.756 1475.15 125.914C1437.22 126.605 1403.12 134.954 1378.08 140.443C1321.32 152.887 1290.52 190.83 1239 217.416C1138.29 269.374 944.779 247.733 893.56 251.744" stroke="url(#paint80_linear_721_10654)" stroke-width="0.25" stroke-miterlimit="10"/>
<path d="M2001.25 40.0891C2001.25 40.0891 1930.02 193.507 1790.01 179.144C1704.08 170.331 1633.14 147.708 1546.92 135.373C1533.12 133.399 1519.14 132.63 1505.22 132.564C1496.28 132.524 1487.51 132.435 1479 132.348C1441.23 131.98 1407.12 138.799 1381.52 143.074C1323.39 152.789 1289.86 186.744 1237.6 211.615C1136.05 259.946 949.953 244.437 897.424 260.438" stroke="url(#paint81_linear_721_10654)" stroke-width="0.25" stroke-miterlimit="10"/>
<path d="M1999.41 38.2947C1999.41 38.2947 1929.5 188.136 1791.62 179.415C1707.94 174.125 1636.63 154.841 1550.3 142.65C1536.62 140.719 1522.77 139.851 1508.95 139.578C1500.06 139.399 1491.34 139.117 1482.88 138.793C1445.27 137.36 1411.14 142.647 1384.99 145.713C1325.46 152.689 1289.23 182.669 1236.21 205.827C1133.83 250.556 955.141 241.146 901.313 269.148" stroke="url(#paint82_linear_721_10654)" stroke-width="0.25" stroke-miterlimit="10"/>
<path d="M1997.57 36.4951C1997.57 36.4951 1928.97 182.691 1793.23 179.678C1711.78 177.869 1640.11 161.967 1553.67 149.922C1540.12 148.032 1526.39 147.063 1512.66 146.583C1503.82 146.269 1495.14 145.789 1486.73 145.229C1449.3 142.732 1415.16 146.49 1388.45 148.346C1327.53 152.58 1288.58 178.603 1234.82 200.037C1131.61 241.178 960.328 237.855 905.191 277.847" stroke="url(#paint83_linear_721_10654)" stroke-width="0.25" stroke-miterlimit="10"/>
<path d="M1995.73 34.7036C1995.73 34.7036 1928.43 177.194 1794.85 179.952C1715.63 181.589 1643.6 169.097 1557.06 157.202C1543.64 155.355 1530.03 154.29 1516.39 153.596C1507.6 153.15 1498.97 152.471 1490.6 151.671C1453.34 148.112 1419.17 150.335 1391.92 150.984C1329.62 152.476 1287.96 174.553 1233.44 194.244C1129.42 231.815 965.524 234.561 909.075 286.549" stroke="url(#paint84_linear_721_10654)" stroke-width="0.25" stroke-miterlimit="10"/>
<path d="M1993.88 32.9095C1993.88 32.9095 1927.86 171.625 1796.45 180.221C1719.45 185.261 1647.08 176.222 1560.42 164.479C1547.13 162.676 1533.64 161.511 1520.11 160.61C1511.36 160.028 1502.79 159.153 1494.46 158.117C1457.36 153.487 1423.19 154.177 1395.37 153.623C1331.68 152.359 1287.32 170.516 1232.05 188.46C1127.23 222.478 970.703 231.273 912.95 295.253" stroke="url(#paint85_linear_721_10654)" stroke-width="0.25" stroke-miterlimit="10"/>
<path d="M1992.04 31.1101C1992.04 31.1101 1927.25 165.977 1798.06 180.487C1723.25 188.893 1650.57 183.345 1563.81 171.751C1550.64 169.994 1537.28 168.723 1523.83 167.615C1515.15 166.895 1506.61 165.827 1498.33 164.551C1461.39 158.856 1427.21 158.006 1398.83 156.254C1333.77 152.231 1286.7 166.48 1230.66 182.665C1125.04 213.163 975.89 227.982 916.835 303.955" stroke="url(#paint86_linear_721_10654)" stroke-width="0.25" stroke-miterlimit="10"/>
<path d="M1990.19 29.3161C1990.19 29.3161 1926.58 160.26 1799.67 180.756C1727.02 192.492 1654.04 190.467 1567.17 179.029C1554.14 177.309 1540.88 175.944 1527.55 174.623C1518.91 173.768 1510.43 172.49 1502.19 170.99C1465.43 164.17 1431.23 161.846 1402.3 158.89C1335.86 152.109 1286.09 162.463 1229.27 176.869C1122.86 203.861 981.08 224.686 920.713 312.655" stroke="url(#paint87_linear_721_10654)" stroke-width="0.25" stroke-miterlimit="10"/>
<path d="M1988.35 27.5218C1988.35 27.5218 1925.84 154.479 1801.28 181.028C1730.75 196.058 1657.53 197.455 1570.55 186.306C1557.64 184.611 1544.52 183.143 1531.28 181.634C1522.69 180.627 1514.25 179.169 1506.05 177.43C1469.46 169.545 1435.25 165.678 1405.76 161.526C1337.95 151.983 1285.46 158.457 1227.89 171.082C1120.67 194.592 986.265 221.4 924.604 321.359" stroke="url(#paint88_linear_721_10654)" stroke-width="0.25" stroke-miterlimit="10"/>
<path d="M1986.51 25.7249C1986.51 25.7249 1925.04 148.642 1802.89 181.294C1734.45 199.591 1661.02 204.588 1573.93 193.581C1561.15 191.931 1548.14 190.361 1534.99 188.642C1526.46 187.502 1518.07 185.846 1509.92 183.864C1473.5 174.917 1439.27 169.506 1409.21 164.154C1340.04 151.844 1284.84 154.451 1226.49 165.284C1118.48 185.326 991.448 218.101 928.475 330.056" stroke="url(#paint89_linear_721_10654)" stroke-width="0.25" stroke-miterlimit="10"/>
<path d="M1984.67 23.9308C1984.67 23.9308 1924.14 142.758 1804.5 181.571C1738.09 203.113 1664.5 211.733 1577.3 200.863C1564.66 199.258 1551.77 197.59 1538.72 195.661C1530.23 194.386 1521.89 192.534 1513.78 190.311C1477.53 180.302 1443.3 173.343 1412.68 166.798C1342.14 151.716 1284.22 150.478 1225.12 159.499C1116.31 176.104 996.649 214.815 932.366 338.76" stroke="url(#paint90_linear_721_10654)" stroke-width="0.25" stroke-miterlimit="10"/>
<path d="M1982.82 22.1312C1982.82 22.1312 1923.17 136.83 1806.11 181.834C1741.68 206.606 1667.98 218.858 1580.67 208.135C1568.15 206.575 1555.39 204.808 1542.43 202.666C1533.99 201.259 1525.7 199.208 1517.64 196.748C1481.55 185.68 1447.33 177.172 1416.14 169.432C1344.24 151.585 1283.59 146.508 1223.72 153.706C1114.1 166.888 1001.83 211.527 936.242 347.465" stroke="url(#paint91_linear_721_10654)" stroke-width="0.25" stroke-miterlimit="10"/>
<path d="M1980.98 20.3369C1980.98 20.3369 1922.09 130.876 1807.72 182.105C1745.22 210.101 1671.47 225.999 1584.05 215.413C1571.66 213.896 1559.02 212.031 1546.16 209.68C1537.77 208.137 1529.53 205.895 1521.51 203.19C1485.59 191.06 1451.37 180.97 1419.6 172.068C1346.37 151.365 1282.96 142.549 1222.33 147.916C1111.89 157.694 1007.01 208.236 940.126 356.167" stroke="url(#paint92_linear_721_10654)" stroke-width="0.25" stroke-miterlimit="10"/>
<path d="M1979.14 18.5458C1979.14 18.5458 1920.92 124.914 1809.33 182.377C1748.71 213.594 1674.95 233.139 1587.43 222.688C1575.16 221.214 1562.64 219.249 1549.88 216.688C1541.54 215.007 1533.34 212.57 1525.37 209.63C1489.63 196.438 1455.4 184.819 1423.06 174.704C1348.47 151.276 1282.32 138.601 1220.95 142.124C1109.67 148.517 1012.2 204.94 944.004 364.866" stroke="url(#paint93_linear_721_10654)" stroke-width="0.25" stroke-miterlimit="10"/>
<path d="M1977.3 16.7462C1977.3 16.7462 1826.9 283.469 1553.61 223.699C1545.32 221.885 1537.16 219.249 1529.23 216.069C1263.39 109.54 1072.58 65.1226 947.879 373.571" stroke="url(#paint94_linear_721_10654)" stroke-width="0.25" stroke-miterlimit="10"/>
<path d="M1972.57 15.8261C1972.52 17.4551 1946.15 64.6647 1896.49 115.207C1847.21 165.366 1775.59 218.822 1681.85 234.398C1643.43 240.885 1601.18 240.995 1555.32 231.779C1547.01 230.123 1538.84 227.653 1530.85 224.638C1518.03 219.79 1505.35 215.037 1492.82 210.402C1412.07 180.418 1338.6 155.713 1272.26 146.559C1243.56 142.681 1216.14 141.714 1189.92 144.416C1125.85 150.898 1068.9 178.913 1018.32 240.385C990.763 273.872 965.61 317.552 943.12 372.045" stroke="url(#paint95_linear_721_10654)" stroke-width="0.25" stroke-miterlimit="10"/>
<path d="M1967.84 14.9007C1967.76 18.1668 1941.74 65.2421 1893.76 115.959C1845.23 167.244 1775.37 222.017 1682.95 239.782C1644.91 247.099 1602.85 248.239 1557.03 239.847C1548.7 238.344 1540.5 236.04 1532.47 233.194C1519.59 228.61 1506.82 224.076 1494.18 219.601C1413.02 190.656 1339.25 164.765 1272.76 154.275C1244.13 149.754 1216.77 148.239 1190.5 150.134C1126.22 154.779 1068.43 179.982 1016.14 239.593C987.318 272.443 961.224 316.211 938.346 370.499" stroke="url(#paint96_linear_721_10654)" stroke-width="0.25" stroke-miterlimit="10"/>
<path d="M1963.13 13.9779C1962.99 18.873 1937.35 65.8468 1891.02 116.713C1843.28 169.14 1775.2 225.345 1684.06 245.174C1646.4 253.37 1604.55 255.407 1558.74 247.922C1550.4 246.56 1542.16 244.441 1534.1 241.757C1521.15 237.442 1508.29 233.147 1495.54 228.814C1413.93 201.071 1339.89 173.93 1273.26 161.999C1244.7 156.883 1217.38 154.744 1191.08 155.865C1126.57 158.61 1067.91 181.055 1013.95 238.82C983.855 271.038 956.833 314.882 933.578 368.976" stroke="url(#paint97_linear_721_10654)" stroke-width="0.25" stroke-miterlimit="10"/>
<path d="M1958.4 13.058C1958.23 19.5849 1932.98 66.4764 1888.28 117.471C1841.32 171.056 1775.02 228.683 1685.17 250.563C1647.89 259.639 1606.22 262.637 1560.45 255.995C1552.1 254.782 1543.82 252.833 1535.71 250.316C1522.7 246.262 1509.75 242.194 1496.89 238.016C1414.86 211.358 1340.52 183.095 1273.75 169.715C1245.27 164.009 1218 161.239 1191.65 161.583C1126.9 162.425 1067.35 182.111 1011.77 238.029C980.379 269.61 952.447 313.541 928.81 367.434" stroke="url(#paint98_linear_721_10654)" stroke-width="0.25" stroke-miterlimit="10"/>
<path d="M1953.67 12.1326C1953.45 20.2884 1928.62 67.1224 1885.54 118.223C1839.38 172.991 1774.84 232.027 1686.26 255.95C1649.37 265.914 1607.89 269.859 1562.15 264.065C1553.78 263.004 1545.48 261.226 1537.32 258.88C1524.25 255.091 1511.2 251.247 1498.24 247.223C1415.79 221.654 1341.16 192.271 1274.24 177.434C1245.84 171.141 1218.6 167.736 1192.21 167.306C1127.21 166.24 1066.74 183.154 1009.57 237.246C976.868 268.187 948.05 312.208 924.021 365.902" stroke="url(#paint99_linear_721_10654)" stroke-width="0.25" stroke-miterlimit="10"/>
<path d="M1948.95 11.2098C1948.69 21.0028 1924.3 67.7984 1882.81 118.978C1837.45 174.943 1774.67 235.382 1687.37 261.342C1650.87 272.199 1609.57 277.091 1563.86 272.14C1555.48 271.234 1547.15 269.621 1538.94 267.443C1525.81 263.922 1512.68 260.299 1499.6 256.431C1416.75 231.938 1341.82 201.455 1274.75 185.161C1246.42 178.277 1219.22 174.239 1192.8 173.035C1127.55 170.057 1066.11 184.196 1007.4 236.465C973.359 266.758 943.668 310.876 919.265 364.371" stroke="url(#paint100_linear_721_10654)" stroke-width="0.25" stroke-miterlimit="10"/>
<path d="M1944.23 10.2901C1943.92 21.7121 1919.99 68.4966 1880.07 119.736C1835.53 176.919 1774.48 238.751 1688.48 266.732C1652.36 278.479 1611.25 284.329 1565.57 280.213C1557.16 279.458 1548.81 278.014 1540.56 276.005C1527.36 272.746 1514.14 269.344 1500.95 265.638C1417.69 242.226 1342.46 210.642 1275.23 192.88C1246.99 185.417 1219.82 180.734 1193.36 178.755C1127.87 173.864 1065.43 185.206 1005.2 235.681C969.812 265.327 939.273 309.538 914.479 362.834" stroke="url(#paint101_linear_721_10654)" stroke-width="0.25" stroke-miterlimit="10"/>
<path d="M1939.5 9.36453C1939.16 22.4182 1915.7 69.2081 1877.34 120.49C1833.63 178.909 1774.31 242.13 1689.59 272.124C1653.86 284.773 1612.93 291.567 1567.29 288.291C1558.87 287.691 1550.48 286.418 1542.19 284.571C1528.94 281.577 1515.63 278.401 1502.32 274.848C1418.65 252.513 1343.13 219.842 1275.74 200.602C1247.58 192.562 1220.44 187.228 1193.95 184.484C1128.2 177.668 1064.75 186.219 1003.03 234.901C966.274 263.892 934.891 308.205 909.722 361.302" stroke="url(#paint102_linear_721_10654)" stroke-width="0.25" stroke-miterlimit="10"/>
<path d="M1934.78 8.44155C1934.39 23.1242 1911.45 69.9414 1874.61 121.245C1831.76 180.915 1774.14 245.518 1690.7 277.515C1655.35 291.069 1614.61 298.804 1569 296.366C1560.57 295.917 1552.16 294.815 1543.81 293.132C1530.49 290.405 1517.09 287.451 1503.67 284.053C1419.6 262.784 1343.79 229.045 1276.24 208.32C1248.16 199.707 1221.06 193.72 1194.54 190.204C1128.52 181.466 1064.02 187.196 1000.85 234.114C962.719 262.439 930.518 306.869 904.959 359.768" stroke="url(#paint103_linear_721_10654)" stroke-width="0.25" stroke-miterlimit="10"/>
<path d="M1930.06 7.52195C1929.62 23.8418 1907.21 70.7027 1871.87 122.003C1829.89 182.947 1773.97 248.917 1691.8 282.905C1656.84 297.366 1616.29 306.042 1570.71 304.439C1562.25 304.142 1553.82 303.208 1545.43 301.693C1532.05 299.232 1518.56 296.495 1505.03 293.258C1420.55 273.055 1344.45 238.257 1276.74 216.037C1248.73 206.847 1221.66 200.201 1195.11 195.928C1128.84 185.254 1063.25 188.162 998.661 233.325C959.121 260.975 926.116 305.529 900.182 358.229" stroke="url(#paint104_linear_721_10654)" stroke-width="0.25" stroke-miterlimit="10"/>
<path d="M1925.33 6.59649C1924.85 24.5453 1902.99 71.4718 1869.13 122.755C1828.04 184.983 1773.8 252.316 1692.9 288.294C1658.33 303.668 1617.96 313.283 1572.42 312.512C1563.95 312.369 1555.48 311.62 1547.04 310.254C1533.6 308.08 1520.03 305.542 1506.38 302.468C1421.51 283.328 1345.1 247.477 1277.24 223.767C1249.31 214.009 1222.27 206.699 1195.68 201.656C1129.15 189.047 1062.45 189.112 996.476 232.553C955.519 259.522 921.733 304.202 895.414 356.705" stroke="url(#paint105_linear_721_10654)" stroke-width="0.25" stroke-miterlimit="10"/>
<path d="M1920.61 5.67399C1920.1 25.2545 1898.8 72.2576 1866.4 123.51C1826.22 187.05 1773.65 255.734 1694.01 293.678C1659.83 309.967 1619.63 320.527 1574.13 320.579C1565.64 320.588 1557.14 320.008 1548.66 318.81C1535.16 316.906 1521.5 314.587 1507.74 311.667C1422.47 293.588 1345.75 256.7 1277.74 231.478C1249.89 221.152 1222.87 213.169 1196.26 207.369C1129.47 192.812 1061.63 190.021 994.293 231.756C951.902 258.026 917.348 302.856 890.639 355.16" stroke="url(#paint106_linear_721_10654)" stroke-width="0.25" stroke-miterlimit="10"/>
<path d="M1915.89 4.7536C1915.32 25.963 1894.63 73.07 1863.66 124.267C1824.42 189.13 1773.49 259.158 1695.11 299.073C1661.33 316.277 1621.3 327.772 1575.83 328.657C1567.33 328.821 1558.8 328.405 1550.28 327.376C1536.71 325.734 1522.96 323.636 1509.09 320.877C1423.42 303.848 1346.41 265.933 1278.24 239.202C1250.47 228.313 1223.48 219.657 1196.84 213.1C1129.78 196.599 1060.8 190.935 992.117 230.98C948.281 256.539 912.965 301.528 885.881 353.634" stroke="url(#paint107_linear_721_10654)" stroke-width="0.25" stroke-miterlimit="10"/>
<path d="M1911.16 3.82848C1910.56 26.6751 1890.48 73.8859 1860.92 125.02C1822.65 191.221 1773.34 262.59 1696.21 304.463C1662.82 322.588 1622.97 335.027 1577.54 336.73C1569.02 337.053 1560.46 336.801 1551.89 335.934C1538.27 334.558 1524.42 332.678 1510.44 330.079C1424.37 314.1 1347.05 275.17 1278.72 246.915C1251.04 235.469 1224.08 226.13 1197.41 218.815C1130.08 200.359 1059.92 191.803 989.925 230.186C944.632 255.023 908.574 300.18 881.099 352.086" stroke="url(#paint108_linear_721_10654)" stroke-width="0.25" stroke-miterlimit="10"/>
<path d="M1906.44 2.90568C1905.79 27.3813 1886.36 74.7123 1858.19 125.774C1820.91 193.332 1773.2 266.027 1697.33 309.849C1664.33 328.903 1624.65 342.273 1579.25 344.8C1570.71 345.275 1562.13 345.196 1553.52 344.492C1539.83 343.383 1525.91 341.722 1511.8 339.287C1425.33 324.354 1347.7 284.415 1279.22 254.64C1251.61 242.631 1224.69 232.611 1197.98 224.546C1130.4 204.13 1059.04 192.668 987.741 229.414C940.971 253.516 904.181 298.855 876.331 350.563" stroke="url(#paint109_linear_721_10654)" stroke-width="0.25" stroke-miterlimit="10"/>
<path d="M1901.72 1.98564C1901.02 28.0929 1882.26 75.5578 1855.45 126.526C1819.19 195.455 1773.06 269.473 1698.43 315.238C1665.84 335.219 1626.33 349.527 1580.96 352.872C1572.41 353.502 1563.79 353.589 1555.13 353.059C1541.38 352.212 1527.37 350.771 1513.16 348.497C1426.29 334.608 1348.34 293.67 1279.72 262.364C1252.19 249.804 1225.3 239.089 1198.56 230.269C1130.72 207.895 1058.14 193.506 985.553 228.627C937.299 251.977 899.792 297.52 871.552 349.029" stroke="url(#paint110_linear_721_10654)" stroke-width="0.25" stroke-miterlimit="10"/>
<path d="M1896.99 1.06043C1896.25 28.7967 1878.19 76.4145 1852.71 127.279C1817.51 197.588 1772.93 272.924 1699.53 320.628C1667.35 341.54 1628 356.785 1582.67 360.948C1574.1 361.735 1565.47 361.987 1556.76 361.623C1542.95 361.041 1528.85 359.813 1514.51 357.702C1427.25 344.851 1348.98 302.926 1280.22 270.08C1252.76 256.963 1225.91 245.559 1199.13 235.993C1131.04 211.647 1057.22 194.319 983.366 227.841C933.617 250.423 895.397 296.182 866.782 347.492" stroke="url(#paint111_linear_721_10654)" stroke-width="0.25" stroke-miterlimit="10"/>
<path d="M1892.27 0.137592C1891.49 29.5111 1874.13 77.2735 1849.99 128.036C1815.87 199.75 1772.82 276.386 1700.65 326.017C1668.88 347.864 1629.69 364.039 1584.4 369.021C1575.81 369.962 1567.14 370.366 1558.39 370.184C1544.52 369.844 1530.33 368.857 1515.88 366.906C1428.22 355.092 1349.63 312.185 1280.74 277.799C1253.35 264.13 1226.54 252.031 1199.73 241.713C1131.38 215.396 1056.32 195.107 981.211 227.055C929.958 248.852 891.043 294.841 862.037 345.952" stroke="url(#paint112_linear_721_10654)" stroke-width="0.25" stroke-miterlimit="10"/>
<path d="M1887.55 -0.787803C1886.72 30.2146 1870.1 78.1407 1847.25 128.788C1814.25 201.914 1772.7 279.851 1701.75 331.406C1670.39 354.193 1631.37 371.296 1586.1 377.093C1577.5 378.194 1568.8 378.759 1560 378.742C1546.07 378.665 1531.79 377.893 1517.23 376.113C1429.17 365.329 1350.26 321.451 1281.22 285.523C1253.9 271.306 1227.13 258.51 1200.3 247.439C1131.7 219.153 1055.37 195.881 979.012 226.277C926.254 247.276 886.636 293.511 857.255 344.423" stroke="url(#paint113_linear_721_10654)" stroke-width="0.25" stroke-miterlimit="10"/>
<path d="M1882.82 -1.70789C1881.96 30.9262 1866.09 79.0215 1844.51 129.545C1812.67 204.092 1772.59 283.326 1702.85 336.793C1671.91 360.517 1633.04 378.556 1587.8 385.163C1579.19 386.424 1570.45 387.148 1561.61 387.3C1547.62 387.494 1533.25 386.934 1518.58 385.315C1430.11 375.559 1350.88 330.718 1281.72 293.239C1254.47 278.476 1227.74 264.976 1200.87 253.162C1132.02 222.893 1054.43 196.634 976.825 225.491C922.551 245.674 882.248 292.176 852.483 342.892" stroke="url(#paint114_linear_721_10654)" stroke-width="0.25" stroke-miterlimit="10"/>
<path d="M1878.1 -2.6306C1877.19 31.6325 1862.1 79.9078 1841.78 130.3C1811.13 206.281 1772.5 286.802 1703.96 342.185C1673.44 366.849 1634.73 385.824 1589.52 393.239C1580.89 394.654 1572.12 395.552 1563.24 395.864C1549.18 396.319 1534.73 395.975 1519.94 394.523C1431.08 385.791 1351.51 339.993 1282.22 300.958C1255.04 285.646 1228.36 271.443 1201.45 258.88C1132.35 226.631 1053.48 197.359 974.64 224.699C918.84 244.051 877.861 290.835 847.708 341.347" stroke="url(#paint115_linear_721_10654)" stroke-width="0.25" stroke-miterlimit="10"/>
<path d="M1873.38 -3.55609C1872.43 32.3442 1858.13 80.7939 1839.04 131.052C1809.62 208.484 1772.4 290.275 1705.06 347.574C1674.97 373.184 1636.41 393.087 1591.22 401.311C1582.57 402.884 1573.79 403.945 1564.85 404.425C1550.73 405.143 1536.19 405.02 1521.3 403.727C1432.03 396.012 1352.13 349.271 1282.72 308.674C1255.6 292.821 1228.98 277.905 1202.02 264.603C1132.69 230.377 1052.53 198.067 972.46 223.915C915.132 242.422 873.475 289.494 842.944 339.812" stroke="url(#paint116_linear_721_10654)" stroke-width="0.25" stroke-miterlimit="10"/>
<path d="M1868.65 -4.47597C1867.65 33.0533 1854.18 81.6855 1836.3 131.81C1808.16 210.695 1772.33 293.761 1706.17 352.964C1676.49 379.519 1638.09 400.352 1592.93 409.384C1584.26 411.117 1575.45 412.337 1566.47 412.986C1552.29 413.974 1537.66 414.058 1522.65 412.938C1432.99 406.245 1352.74 358.558 1283.21 316.404C1256.17 300.002 1229.59 284.386 1202.6 270.334C1133.02 234.123 1051.58 198.764 970.275 223.143C911.42 240.786 869.089 288.173 838.17 338.286" stroke="url(#paint117_linear_721_10654)" stroke-width="0.25" stroke-miterlimit="10"/>
<path d="M1863.93 -5.3987C1862.89 33.7622 1850.26 82.5851 1833.57 132.565C1806.74 212.913 1772.26 297.245 1707.28 358.356C1678.03 385.854 1639.78 407.626 1594.64 417.459C1585.96 419.352 1577.11 420.733 1568.09 421.547C1553.85 422.797 1539.13 423.097 1524.01 422.142C1433.94 416.458 1353.35 367.838 1283.71 324.12C1256.72 307.178 1230.21 290.847 1203.17 276.052C1133.37 237.855 1050.63 199.437 968.09 222.351C907.704 239.116 864.696 286.829 833.4 336.75" stroke="url(#paint118_linear_721_10654)" stroke-width="0.25" stroke-miterlimit="10"/>
<path d="M1859.21 -6.32414C1858.12 34.4658 1846.35 83.4736 1830.83 133.317C1805.35 215.137 1772.19 300.729 1708.38 363.745C1679.57 392.194 1641.47 414.894 1596.36 425.535C1587.66 427.582 1578.78 429.136 1569.71 430.111C1555.4 431.629 1540.6 432.135 1525.37 431.35C1434.9 426.681 1353.95 377.125 1284.22 331.842C1257.29 314.356 1230.84 297.314 1203.76 281.781C1133.72 241.595 1049.68 200.098 965.917 221.57C903.997 237.443 860.321 285.499 828.636 335.215" stroke="url(#paint119_linear_721_10654)" stroke-width="0.25" stroke-miterlimit="10"/>
<path d="M1854.48 -7.24401C1853.35 35.1831 1842.45 84.3705 1828.09 134.074C1804.02 217.375 1772.12 304.221 1709.48 369.134C1681.11 398.529 1643.15 422.165 1598.07 433.608C1589.36 435.817 1580.44 437.529 1571.33 438.672C1556.97 440.455 1542.07 441.174 1526.73 440.554C1435.85 436.894 1354.55 386.414 1284.71 339.558C1257.84 321.526 1231.46 303.776 1204.33 287.496C1134.07 245.325 1048.73 200.732 963.731 220.779C900.284 235.748 855.93 284.15 823.868 333.673" stroke="url(#paint120_linear_721_10654)" stroke-width="0.25" stroke-miterlimit="10"/>
<path d="M1849.75 -8.16947C1848.58 35.8866 1838.58 85.2616 1825.35 134.827C1802.72 219.609 1772.07 307.713 1710.58 374.521C1682.65 404.869 1644.83 429.436 1599.77 441.678C1591.04 444.047 1582.1 445.919 1572.94 447.236C1558.51 449.281 1543.53 450.216 1528.07 449.767C1436.78 447.113 1355.13 395.714 1285.2 347.282C1258.39 328.713 1232.06 310.246 1204.89 293.227C1134.41 249.062 1047.78 201.366 961.54 220.004C896.556 234.048 851.537 282.826 819.094 332.147" stroke="url(#paint121_linear_721_10654)" stroke-width="0.25" stroke-miterlimit="10"/>
<path d="M1845.03 -9.09222C1843.83 36.5955 1834.73 86.1553 1822.62 135.584C1801.49 221.848 1772.04 311.205 1711.7 379.91C1684.22 411.206 1646.58 436.783 1601.49 449.75C1592.76 452.296 1583.77 454.312 1574.57 455.796C1560.08 458.112 1545.01 459.227 1529.44 458.969C1437.72 457.174 1355.73 405.003 1285.71 355.004C1258.95 335.894 1232.7 316.715 1205.48 298.95C1134.78 252.8 1046.85 201.975 959.36 219.22C892.851 232.331 847.156 281.493 814.321 330.615" stroke="url(#paint122_linear_721_10654)" stroke-width="0.25" stroke-miterlimit="10"/>
<path d="M1840.31 -10.012C1839.05 37.3047 1830.89 87.049 1819.88 136.342C1800.29 224.096 1772 314.699 1712.8 385.305C1685.76 417.549 1648.25 444.038 1603.19 457.828C1594.45 460.526 1585.44 462.718 1576.18 464.36C1561.63 466.938 1546.47 468.274 1530.78 468.177C1438.66 467.429 1356.3 414.301 1286.19 362.723C1259.48 343.07 1233.33 323.152 1206.05 304.676C1135.19 256.46 1045.9 202.579 957.163 218.437C889.121 230.598 842.751 280.158 809.542 329.081" stroke="url(#paint123_linear_721_10654)" stroke-width="0.25" stroke-miterlimit="10"/>
<path d="M1835.58 -10.9377C1834.29 38.0162 1827.07 87.9285 1817.15 137.094C1799.14 226.34 1772.06 318.248 1713.9 390.694C1687.36 423.919 1649.93 451.289 1604.9 465.901C1596.14 468.753 1587.1 471.11 1577.8 472.921C1563.18 475.761 1547.94 477.318 1532.14 477.381C1439.6 477.677 1356.82 423.648 1286.7 370.442C1260.01 350.276 1233.95 329.627 1206.63 310.397C1135.53 260.227 1044.99 203.163 954.99 217.656C885.424 228.858 838.379 278.823 804.779 327.547" stroke="url(#paint124_linear_721_10654)" stroke-width="0.25" stroke-miterlimit="10"/>
<path d="M1830.86 -11.8605C1829.52 38.7224 1823.26 88.8027 1814.41 137.848C1798.04 228.582 1771.95 321.677 1715.01 396.081C1675.78 447.352 1611.44 485.464 1533.5 486.583C1440.57 487.921 1357.46 432.887 1287.2 378.155C1260.59 357.424 1234.57 336.102 1207.21 316.109C1135.87 263.987 1044.07 203.728 952.807 216.859C881.718 227.083 833.988 277.473 800.011 326.004" stroke="url(#paint125_linear_721_10654)" stroke-width="0.25" stroke-miterlimit="10"/>
<defs>
<linearGradient id="paint0_linear_721_10654" x1="617.273" y1="30.3523" x2="535.345" y2="424.321" gradientUnits="userSpaceOnUse">
<stop offset="0.7946" stop-color="#B40FE7"/>
<stop offset="1" stop-color="#1BA4E5" stop-opacity="0.5"/>
</linearGradient>
<linearGradient id="paint1_linear_721_10654" x1="615.732" y1="36.4336" x2="534.767" y2="425.771" gradientUnits="userSpaceOnUse">
<stop offset="0.7946" stop-color="#B40FE7"/>
<stop offset="1" stop-color="#1BA4E5" stop-opacity="0.5"/>
</linearGradient>
<linearGradient id="paint2_linear_721_10654" x1="614.187" y1="42.5618" x2="534.195" y2="427.222" gradientUnits="userSpaceOnUse">
<stop offset="0.7946" stop-color="#B40FE7"/>
<stop offset="1" stop-color="#1BA4E5" stop-opacity="0.5"/>
</linearGradient>
<linearGradient id="paint3_linear_721_10654" x1="612.648" y1="48.608" x2="533.612" y2="428.671" gradientUnits="userSpaceOnUse">
<stop offset="0.7946" stop-color="#B40FE7"/>
<stop offset="1" stop-color="#1BA4E5" stop-opacity="0.5"/>
</linearGradient>
<linearGradient id="paint4_linear_721_10654" x1="611.114" y1="54.6053" x2="533.024" y2="430.118" gradientUnits="userSpaceOnUse">
<stop offset="0.7946" stop-color="#B40FE7"/>
<stop offset="1" stop-color="#1BA4E5" stop-opacity="0.5"/>
</linearGradient>
<linearGradient id="paint5_linear_721_10654" x1="609.584" y1="60.5445" x2="532.429" y2="431.564" gradientUnits="userSpaceOnUse">
<stop offset="0.7946" stop-color="#B40FE7"/>
<stop offset="1" stop-color="#1BA4E5" stop-opacity="0.5"/>
</linearGradient>
<linearGradient id="paint6_linear_721_10654" x1="608.06" y1="66.4139" x2="531.825" y2="433.008" gradientUnits="userSpaceOnUse">
<stop offset="0.7946" stop-color="#B40FE7"/>
<stop offset="1" stop-color="#1BA4E5" stop-opacity="0.5"/>
</linearGradient>
<linearGradient id="paint7_linear_721_10654" x1="606.542" y1="72.1973" x2="531.21" y2="434.45" gradientUnits="userSpaceOnUse">
<stop offset="0.7946" stop-color="#B40FE7"/>
<stop offset="1" stop-color="#1BA4E5" stop-opacity="0.5"/>
</linearGradient>
<linearGradient id="paint8_linear_721_10654" x1="605.033" y1="77.8751" x2="530.582" y2="435.889" gradientUnits="userSpaceOnUse">
<stop offset="0.7946" stop-color="#B40FE7"/>
<stop offset="1" stop-color="#1BA4E5" stop-opacity="0.5"/>
</linearGradient>
<linearGradient id="paint9_linear_721_10654" x1="603.535" y1="83.4194" x2="529.938" y2="437.325" gradientUnits="userSpaceOnUse">
<stop offset="0.7946" stop-color="#B40FE7"/>
<stop offset="1" stop-color="#1BA4E5" stop-opacity="0.5"/>
</linearGradient>
<linearGradient id="paint10_linear_721_10654" x1="602.05" y1="88.7921" x2="529.273" y2="438.757" gradientUnits="userSpaceOnUse">
<stop offset="0.7946" stop-color="#B40FE7"/>
<stop offset="1" stop-color="#1BA4E5" stop-opacity="0.5"/>
</linearGradient>
<linearGradient id="paint11_linear_721_10654" x1="600.582" y1="93.9377" x2="528.579" y2="440.182" gradientUnits="userSpaceOnUse">
<stop offset="0.7946" stop-color="#B40FE7"/>
<stop offset="1" stop-color="#1BA4E5" stop-opacity="0.5"/>
</linearGradient>
<linearGradient id="paint12_linear_721_10654" x1="599.138" y1="98.7734" x2="527.846" y2="441.599" gradientUnits="userSpaceOnUse">
<stop offset="0.7946" stop-color="#B40FE7"/>
<stop offset="1" stop-color="#1BA4E5" stop-opacity="0.5"/>
</linearGradient>
<linearGradient id="paint13_linear_721_10654" x1="597.729" y1="103.166" x2="527.058" y2="443.005" gradientUnits="userSpaceOnUse">
<stop offset="0.7946" stop-color="#B40FE7"/>
<stop offset="1" stop-color="#1BA4E5" stop-opacity="0.5"/>
</linearGradient>
<linearGradient id="paint14_linear_721_10654" x1="596.373" y1="106.876" x2="526.184" y2="444.393" gradientUnits="userSpaceOnUse">
<stop offset="0.7946" stop-color="#B40FE7"/>
<stop offset="1" stop-color="#1BA4E5" stop-opacity="0.5"/>
</linearGradient>
<linearGradient id="paint15_linear_721_10654" x1="595.109" y1="109.4" x2="525.163" y2="445.751" gradientUnits="userSpaceOnUse">
<stop offset="0.7946" stop-color="#B40FE7"/>
<stop offset="1" stop-color="#1BA4E5" stop-opacity="0.5"/>
</linearGradient>
<linearGradient id="paint16_linear_721_10654" x1="594.074" y1="109.086" x2="523.795" y2="447.036" gradientUnits="userSpaceOnUse">
<stop offset="0.7946" stop-color="#B40FE7"/>
<stop offset="1" stop-color="#1BA4E5" stop-opacity="0.5"/>
</linearGradient>
<linearGradient id="paint17_linear_721_10654" x1="593.679" y1="101.078" x2="521.508" y2="448.13" gradientUnits="userSpaceOnUse">
<stop offset="0.7946" stop-color="#B40FE7"/>
<stop offset="1" stop-color="#1BA4E5" stop-opacity="0.5"/>
</linearGradient>
<linearGradient id="paint18_linear_721_10654" x1="593.314" y1="92.7198" x2="519.179" y2="449.215" gradientUnits="userSpaceOnUse">
<stop offset="0.7946" stop-color="#B40FE7"/>
<stop offset="1" stop-color="#1BA4E5" stop-opacity="0.5"/>
</linearGradient>
<linearGradient id="paint19_linear_721_10654" x1="592.946" y1="84.3628" x2="516.848" y2="450.3" gradientUnits="userSpaceOnUse">
<stop offset="0.7946" stop-color="#B40FE7"/>
<stop offset="1" stop-color="#1BA4E5" stop-opacity="0.5"/>
</linearGradient>
<linearGradient id="paint20_linear_721_10654" x1="592.577" y1="76.0052" x2="514.515" y2="451.385" gradientUnits="userSpaceOnUse">
<stop offset="0.7946" stop-color="#B40FE7"/>
<stop offset="1" stop-color="#1BA4E5" stop-opacity="0.5"/>
</linearGradient>
<linearGradient id="paint21_linear_721_10654" x1="592.206" y1="67.6466" x2="512.18" y2="452.469" gradientUnits="userSpaceOnUse">
<stop offset="0.7946" stop-color="#B40FE7"/>
<stop offset="1" stop-color="#1BA4E5" stop-opacity="0.5"/>
</linearGradient>
<linearGradient id="paint22_linear_721_10654" x1="591.834" y1="59.2868" x2="509.844" y2="453.554" gradientUnits="userSpaceOnUse">
<stop offset="0.7946" stop-color="#B40FE7"/>
<stop offset="1" stop-color="#1BA4E5" stop-opacity="0.5"/>
</linearGradient>
<linearGradient id="paint23_linear_721_10654" x1="591.461" y1="50.9258" x2="507.507" y2="454.638" gradientUnits="userSpaceOnUse">
<stop offset="0.7946" stop-color="#B40FE7"/>
<stop offset="1" stop-color="#1BA4E5" stop-opacity="0.5"/>
</linearGradient>
<linearGradient id="paint24_linear_721_10654" x1="591.089" y1="42.5642" x2="505.17" y2="455.722" gradientUnits="userSpaceOnUse">
<stop offset="0.7946" stop-color="#B40FE7"/>
<stop offset="1" stop-color="#1BA4E5" stop-opacity="0.5"/>
</linearGradient>
<linearGradient id="paint25_linear_721_10654" x1="590.716" y1="34.2017" x2="502.833" y2="456.805" gradientUnits="userSpaceOnUse">
<stop offset="0.7946" stop-color="#B40FE7"/>
<stop offset="1" stop-color="#1BA4E5" stop-opacity="0.5"/>
</linearGradient>
<linearGradient id="paint26_linear_721_10654" x1="590.342" y1="25.8391" x2="500.495" y2="457.89" gradientUnits="userSpaceOnUse">
<stop offset="0.7946" stop-color="#B40FE7"/>
<stop offset="1" stop-color="#1BA4E5" stop-opacity="0.5"/>
</linearGradient>
<linearGradient id="paint27_linear_721_10654" x1="589.969" y1="17.4757" x2="498.157" y2="458.973" gradientUnits="userSpaceOnUse">
<stop offset="0.7946" stop-color="#B40FE7"/>
<stop offset="1" stop-color="#1BA4E5" stop-opacity="0.5"/>
</linearGradient>
<linearGradient id="paint28_linear_721_10654" x1="589.596" y1="9.11225" x2="495.819" y2="460.058" gradientUnits="userSpaceOnUse">
<stop offset="0.7946" stop-color="#B40FE7"/>
<stop offset="1" stop-color="#1BA4E5" stop-opacity="0.5"/>
</linearGradient>
<linearGradient id="paint29_linear_721_10654" x1="589.222" y1="0.748498" x2="493.481" y2="461.142" gradientUnits="userSpaceOnUse">
<stop offset="0.7946" stop-color="#B40FE7"/>
<stop offset="1" stop-color="#1BA4E5" stop-opacity="0.5"/>
</linearGradient>
<linearGradient id="paint30_linear_721_10654" x1="588.849" y1="-7.61575" x2="491.143" y2="462.226" gradientUnits="userSpaceOnUse">
<stop offset="0.7946" stop-color="#B40FE7"/>
<stop offset="1" stop-color="#1BA4E5" stop-opacity="0.5"/>
</linearGradient>
<linearGradient id="paint31_linear_721_10654" x1="588.475" y1="-15.9799" x2="488.805" y2="463.31" gradientUnits="userSpaceOnUse">
<stop offset="0.7946" stop-color="#B40FE7"/>
<stop offset="1" stop-color="#1BA4E5" stop-opacity="0.5"/>
</linearGradient>
<linearGradient id="paint32_linear_721_10654" x1="593.091" y1="-14.11" x2="493.55" y2="464.558" gradientUnits="userSpaceOnUse">
<stop offset="0.7946" stop-color="#B40FE7"/>
<stop offset="1" stop-color="#1BA4E5" stop-opacity="0.5"/>
</linearGradient>
<linearGradient id="paint33_linear_721_10654" x1="597.712" y1="-12.2388" x2="498.293" y2="465.842" gradientUnits="userSpaceOnUse">
<stop offset="0.7946" stop-color="#B40FE7"/>
<stop offset="1" stop-color="#1BA4E5" stop-opacity="0.5"/>
</linearGradient>
<linearGradient id="paint34_linear_721_10654" x1="602.333" y1="-10.3677" x2="503.036" y2="467.126" gradientUnits="userSpaceOnUse">
<stop offset="0.7946" stop-color="#B40FE7"/>
<stop offset="1" stop-color="#1BA4E5" stop-opacity="0.5"/>
</linearGradient>
<linearGradient id="paint35_linear_721_10654" x1="606.953" y1="-8.49683" x2="507.778" y2="468.41" gradientUnits="userSpaceOnUse">
<stop offset="0.7946" stop-color="#B40FE7"/>
<stop offset="1" stop-color="#1BA4E5" stop-opacity="0.5"/>
</linearGradient>
<linearGradient id="paint36_linear_721_10654" x1="611.574" y1="-6.62548" x2="512.521" y2="469.695" gradientUnits="userSpaceOnUse">
<stop offset="0.7946" stop-color="#B40FE7"/>
<stop offset="1" stop-color="#1BA4E5" stop-opacity="0.5"/>
</linearGradient>
<linearGradient id="paint37_linear_721_10654" x1="616.195" y1="-4.75456" x2="517.264" y2="470.979" gradientUnits="userSpaceOnUse">
<stop offset="0.7946" stop-color="#B40FE7"/>
<stop offset="1" stop-color="#1BA4E5" stop-opacity="0.5"/>
</linearGradient>
<linearGradient id="paint38_linear_721_10654" x1="620.815" y1="-2.88334" x2="522.006" y2="472.263" gradientUnits="userSpaceOnUse">
<stop offset="0.7946" stop-color="#B40FE7"/>
<stop offset="1" stop-color="#1BA4E5" stop-opacity="0.5"/>
</linearGradient>
<linearGradient id="paint39_linear_721_10654" x1="625.436" y1="-1.01216" x2="526.749" y2="473.548" gradientUnits="userSpaceOnUse">
<stop offset="0.7946" stop-color="#B40FE7"/>
<stop offset="1" stop-color="#1BA4E5" stop-opacity="0.5"/>
</linearGradient>
<linearGradient id="paint40_linear_721_10654" x1="630.057" y1="0.859023" x2="531.492" y2="474.832" gradientUnits="userSpaceOnUse">
<stop offset="0.7946" stop-color="#B40FE7"/>
<stop offset="1" stop-color="#1BA4E5" stop-opacity="0.5"/>
</linearGradient>
<linearGradient id="paint41_linear_721_10654" x1="634.677" y1="2.72991" x2="536.234" y2="476.116" gradientUnits="userSpaceOnUse">
<stop offset="0.7946" stop-color="#B40FE7"/>
<stop offset="1" stop-color="#1BA4E5" stop-opacity="0.5"/>
</linearGradient>
<linearGradient id="paint42_linear_721_10654" x1="639.298" y1="4.6009" x2="540.977" y2="477.4" gradientUnits="userSpaceOnUse">
<stop offset="0.7946" stop-color="#B40FE7"/>
<stop offset="1" stop-color="#1BA4E5" stop-opacity="0.5"/>
</linearGradient>
<linearGradient id="paint43_linear_721_10654" x1="643.919" y1="6.4719" x2="545.72" y2="478.684" gradientUnits="userSpaceOnUse">
<stop offset="0.7946" stop-color="#B40FE7"/>
<stop offset="1" stop-color="#1BA4E5" stop-opacity="0.5"/>
</linearGradient>
<linearGradient id="paint44_linear_721_10654" x1="648.539" y1="8.34331" x2="550.462" y2="479.969" gradientUnits="userSpaceOnUse">
<stop offset="0.7946" stop-color="#B40FE7"/>
<stop offset="1" stop-color="#1BA4E5" stop-opacity="0.5"/>
</linearGradient>
<linearGradient id="paint45_linear_721_10654" x1="653.16" y1="10.2142" x2="555.205" y2="481.253" gradientUnits="userSpaceOnUse">
<stop offset="0.7946" stop-color="#B40FE7"/>
<stop offset="1" stop-color="#1BA4E5" stop-opacity="0.5"/>
</linearGradient>
<linearGradient id="paint46_linear_721_10654" x1="657.781" y1="12.0852" x2="559.948" y2="482.537" gradientUnits="userSpaceOnUse">
<stop offset="0.7946" stop-color="#B40FE7"/>
<stop offset="1" stop-color="#1BA4E5" stop-opacity="0.5"/>
</linearGradient>
<linearGradient id="paint47_linear_721_10654" x1="662.401" y1="13.9566" x2="564.69" y2="483.822" gradientUnits="userSpaceOnUse">
<stop offset="0.7946" stop-color="#B40FE7"/>
<stop offset="1" stop-color="#1BA4E5" stop-opacity="0.5"/>
</linearGradient>
<linearGradient id="paint48_linear_721_10654" x1="667.022" y1="15.8274" x2="569.433" y2="485.106" gradientUnits="userSpaceOnUse">
<stop offset="0.7946" stop-color="#B40FE7"/>
<stop offset="1" stop-color="#1BA4E5" stop-opacity="0.5"/>
</linearGradient>
<linearGradient id="paint49_linear_721_10654" x1="671.643" y1="17.6988" x2="574.176" y2="486.39" gradientUnits="userSpaceOnUse">
<stop offset="0.7946" stop-color="#B40FE7"/>
<stop offset="1" stop-color="#1BA4E5" stop-opacity="0.5"/>
</linearGradient>
<linearGradient id="paint50_linear_721_10654" x1="676.263" y1="19.57" x2="578.918" y2="487.674" gradientUnits="userSpaceOnUse">
<stop offset="0.7946" stop-color="#B40FE7"/>
<stop offset="1" stop-color="#1BA4E5" stop-opacity="0.5"/>
</linearGradient>
<linearGradient id="paint51_linear_721_10654" x1="680.884" y1="21.4412" x2="583.661" y2="488.959" gradientUnits="userSpaceOnUse">
<stop offset="0.7946" stop-color="#B40FE7"/>
<stop offset="1" stop-color="#1BA4E5" stop-opacity="0.5"/>
</linearGradient>
<linearGradient id="paint52_linear_721_10654" x1="685.504" y1="23.312" x2="588.404" y2="490.243" gradientUnits="userSpaceOnUse">
<stop offset="0.7946" stop-color="#B40FE7"/>
<stop offset="1" stop-color="#1BA4E5" stop-opacity="0.5"/>
</linearGradient>
<linearGradient id="paint53_linear_721_10654" x1="690.125" y1="25.1834" x2="593.146" y2="491.527" gradientUnits="userSpaceOnUse">
<stop offset="0.7946" stop-color="#B40FE7"/>
<stop offset="1" stop-color="#1BA4E5" stop-opacity="0.5"/>
</linearGradient>
<linearGradient id="paint54_linear_721_10654" x1="694.746" y1="27.0543" x2="597.889" y2="492.811" gradientUnits="userSpaceOnUse">
<stop offset="0.7946" stop-color="#B40FE7"/>
<stop offset="1" stop-color="#1BA4E5" stop-opacity="0.5"/>
</linearGradient>
<linearGradient id="paint55_linear_721_10654" x1="699.366" y1="28.9255" x2="602.632" y2="494.096" gradientUnits="userSpaceOnUse">
<stop offset="0.7946" stop-color="#B40FE7"/>
<stop offset="1" stop-color="#1BA4E5" stop-opacity="0.5"/>
</linearGradient>
<linearGradient id="paint56_linear_721_10654" x1="704.34" y1="26.4304" x2="606.842" y2="495.269" gradientUnits="userSpaceOnUse">
<stop offset="0.7946" stop-color="#B40FE7"/>
<stop offset="1" stop-color="#1BA4E5" stop-opacity="0.5"/>
</linearGradient>
<linearGradient id="paint57_linear_721_10654" x1="709.778" y1="18.1838" x2="610.352" y2="496.297" gradientUnits="userSpaceOnUse">
<stop offset="0.7946" stop-color="#B40FE7"/>
<stop offset="1" stop-color="#1BA4E5" stop-opacity="0.5"/>
</linearGradient>
<linearGradient id="paint58_linear_721_10654" x1="715.217" y1="9.92028" x2="613.859" y2="497.324" gradientUnits="userSpaceOnUse">
<stop offset="0.7946" stop-color="#B40FE7"/>
<stop offset="1" stop-color="#1BA4E5" stop-opacity="0.5"/>
</linearGradient>
<linearGradient id="paint59_linear_721_10654" x1="720.655" y1="1.67658" x2="617.369" y2="498.352" gradientUnits="userSpaceOnUse">
<stop offset="0.7946" stop-color="#B40FE7"/>
<stop offset="1" stop-color="#1BA4E5" stop-opacity="0.5"/>
</linearGradient>
<linearGradient id="paint60_linear_721_10654" x1="726.098" y1="-6.62563" x2="620.871" y2="499.378" gradientUnits="userSpaceOnUse">
<stop offset="0.7946" stop-color="#B40FE7"/>
<stop offset="1" stop-color="#1BA4E5" stop-opacity="0.5"/>
</linearGradient>
<linearGradient id="paint61_linear_721_10654" x1="731.541" y1="-14.9437" x2="624.372" y2="500.404" gradientUnits="userSpaceOnUse">
<stop offset="0.7946" stop-color="#B40FE7"/>
<stop offset="1" stop-color="#1BA4E5" stop-opacity="0.5"/>
</linearGradient>
<linearGradient id="paint62_linear_721_10654" x1="736.986" y1="-23.2693" x2="627.872" y2="501.43" gradientUnits="userSpaceOnUse">
<stop offset="0.7946" stop-color="#B40FE7"/>
<stop offset="1" stop-color="#1BA4E5" stop-opacity="0.5"/>
</linearGradient>
<linearGradient id="paint63_linear_721_10654" x1="1428.56" y1="397.71" x2="1481.63" y2="-1.17208" gradientUnits="userSpaceOnUse">
<stop offset="0.7946" stop-color="#B40FE7"/>
<stop offset="1" stop-color="#1BA4E5" stop-opacity="0.5"/>
</linearGradient>
<linearGradient id="paint64_linear_721_10654" x1="1429.66" y1="391.533" x2="1482.1" y2="-2.66001" gradientUnits="userSpaceOnUse">
<stop offset="0.7946" stop-color="#B40FE7"/>
<stop offset="1" stop-color="#1BA4E5" stop-opacity="0.5"/>
</linearGradient>
<linearGradient id="paint65_linear_721_10654" x1="1430.75" y1="385.309" x2="1482.57" y2="-4.14863" gradientUnits="userSpaceOnUse">
<stop offset="0.7946" stop-color="#B40FE7"/>
<stop offset="1" stop-color="#1BA4E5" stop-opacity="0.5"/>
</linearGradient>
<linearGradient id="paint66_linear_721_10654" x1="1431.85" y1="379.167" x2="1483.04" y2="-5.63586" gradientUnits="userSpaceOnUse">
<stop offset="0.7946" stop-color="#B40FE7"/>
<stop offset="1" stop-color="#1BA4E5" stop-opacity="0.5"/>
</linearGradient>
<linearGradient id="paint67_linear_721_10654" x1="1432.94" y1="373.073" x2="1483.53" y2="-7.1223" gradientUnits="userSpaceOnUse">
<stop offset="0.7946" stop-color="#B40FE7"/>
<stop offset="1" stop-color="#1BA4E5" stop-opacity="0.5"/>
</linearGradient>
<linearGradient id="paint68_linear_721_10654" x1="1434.03" y1="367.039" x2="1484.01" y2="-8.60764" gradientUnits="userSpaceOnUse">
<stop offset="0.7946" stop-color="#B40FE7"/>
<stop offset="1" stop-color="#1BA4E5" stop-opacity="0.5"/>
</linearGradient>
<linearGradient id="paint69_linear_721_10654" x1="1435.13" y1="361.074" x2="1484.51" y2="-10.0918" gradientUnits="userSpaceOnUse">
<stop offset="0.7946" stop-color="#B40FE7"/>
<stop offset="1" stop-color="#1BA4E5" stop-opacity="0.5"/>
</linearGradient>
<linearGradient id="paint70_linear_721_10654" x1="1436.22" y1="355.196" x2="1485.02" y2="-11.5747" gradientUnits="userSpaceOnUse">
<stop offset="0.7946" stop-color="#B40FE7"/>
<stop offset="1" stop-color="#1BA4E5" stop-opacity="0.5"/>
</linearGradient>
<linearGradient id="paint71_linear_721_10654" x1="1437.31" y1="349.423" x2="1485.54" y2="-13.0556" gradientUnits="userSpaceOnUse">
<stop offset="0.7946" stop-color="#B40FE7"/>
<stop offset="1" stop-color="#1BA4E5" stop-opacity="0.5"/>
</linearGradient>
<linearGradient id="paint72_linear_721_10654" x1="1438.4" y1="343.785" x2="1486.08" y2="-14.5345" gradientUnits="userSpaceOnUse">
<stop offset="0.7946" stop-color="#B40FE7"/>
<stop offset="1" stop-color="#1BA4E5" stop-opacity="0.5"/>
</linearGradient>
<linearGradient id="paint73_linear_721_10654" x1="1439.49" y1="338.318" x2="1486.64" y2="-16.0108" gradientUnits="userSpaceOnUse">
<stop offset="0.7946" stop-color="#B40FE7"/>
<stop offset="1" stop-color="#1BA4E5" stop-opacity="0.5"/>
</linearGradient>
<linearGradient id="paint74_linear_721_10654" x1="1440.58" y1="333.08" x2="1487.23" y2="-17.4825" gradientUnits="userSpaceOnUse">
<stop offset="0.7946" stop-color="#B40FE7"/>
<stop offset="1" stop-color="#1BA4E5" stop-opacity="0.5"/>
</linearGradient>
<linearGradient id="paint75_linear_721_10654" x1="1441.67" y1="328.152" x2="1487.86" y2="-18.9495" gradientUnits="userSpaceOnUse">
<stop offset="0.7946" stop-color="#B40FE7"/>
<stop offset="1" stop-color="#1BA4E5" stop-opacity="0.5"/>
</linearGradient>
<linearGradient id="paint76_linear_721_10654" x1="1442.76" y1="323.668" x2="1488.54" y2="-20.4091" gradientUnits="userSpaceOnUse">
<stop offset="0.7946" stop-color="#B40FE7"/>
<stop offset="1" stop-color="#1BA4E5" stop-opacity="0.5"/>
</linearGradient>
<linearGradient id="paint77_linear_721_10654" x1="1443.84" y1="319.87" x2="1489.31" y2="-21.8572" gradientUnits="userSpaceOnUse">
<stop offset="0.7946" stop-color="#B40FE7"/>
<stop offset="1" stop-color="#1BA4E5" stop-opacity="0.5"/>
</linearGradient>
<linearGradient id="paint78_linear_721_10654" x1="1444.92" y1="317.26" x2="1490.23" y2="-23.2852" gradientUnits="userSpaceOnUse">
<stop offset="0.7946" stop-color="#B40FE7"/>
<stop offset="1" stop-color="#1BA4E5" stop-opacity="0.5"/>
</linearGradient>
<linearGradient id="paint79_linear_721_10654" x1="1445.97" y1="317.498" x2="1491.5" y2="-24.6664" gradientUnits="userSpaceOnUse">
<stop offset="0.7946" stop-color="#B40FE7"/>
<stop offset="1" stop-color="#1BA4E5" stop-opacity="0.5"/>
</linearGradient>
<linearGradient id="paint80_linear_721_10654" x1="1446.95" y1="325.457" x2="1493.7" y2="-25.9237" gradientUnits="userSpaceOnUse">
<stop offset="0.7946" stop-color="#B40FE7"/>
<stop offset="1" stop-color="#1BA4E5" stop-opacity="0.5"/>
</linearGradient>
<linearGradient id="paint81_linear_721_10654" x1="1447.92" y1="333.766" x2="1495.95" y2="-27.1755" gradientUnits="userSpaceOnUse">
<stop offset="0.7946" stop-color="#B40FE7"/>
<stop offset="1" stop-color="#1BA4E5" stop-opacity="0.5"/>
</linearGradient>
<linearGradient id="paint82_linear_721_10654" x1="1448.9" y1="342.074" x2="1498.19" y2="-28.4274" gradientUnits="userSpaceOnUse">
<stop offset="0.7946" stop-color="#B40FE7"/>
<stop offset="1" stop-color="#1BA4E5" stop-opacity="0.5"/>
</linearGradient>
<linearGradient id="paint83_linear_721_10654" x1="1449.87" y1="350.383" x2="1500.44" y2="-29.6786" gradientUnits="userSpaceOnUse">
<stop offset="0.7946" stop-color="#B40FE7"/>
<stop offset="1" stop-color="#1BA4E5" stop-opacity="0.5"/>
</linearGradient>
<linearGradient id="paint84_linear_721_10654" x1="1450.85" y1="358.692" x2="1502.69" y2="-30.93" gradientUnits="userSpaceOnUse">
<stop offset="0.7946" stop-color="#B40FE7"/>
<stop offset="1" stop-color="#1BA4E5" stop-opacity="0.5"/>
</linearGradient>
<linearGradient id="paint85_linear_721_10654" x1="1451.83" y1="367.003" x2="1504.94" y2="-32.1809" gradientUnits="userSpaceOnUse">
<stop offset="0.7946" stop-color="#B40FE7"/>
<stop offset="1" stop-color="#1BA4E5" stop-opacity="0.5"/>
</linearGradient>
<linearGradient id="paint86_linear_721_10654" x1="1452.81" y1="375.315" x2="1507.19" y2="-33.4317" gradientUnits="userSpaceOnUse">
<stop offset="0.7946" stop-color="#B40FE7"/>
<stop offset="1" stop-color="#1BA4E5" stop-opacity="0.5"/>
</linearGradient>
<linearGradient id="paint87_linear_721_10654" x1="1453.79" y1="383.627" x2="1509.44" y2="-34.6826" gradientUnits="userSpaceOnUse">
<stop offset="0.7946" stop-color="#B40FE7"/>
<stop offset="1" stop-color="#1BA4E5" stop-opacity="0.5"/>
</linearGradient>
<linearGradient id="paint88_linear_721_10654" x1="1454.77" y1="391.94" x2="1511.7" y2="-35.9338" gradientUnits="userSpaceOnUse">
<stop offset="0.7946" stop-color="#B40FE7"/>
<stop offset="1" stop-color="#1BA4E5" stop-opacity="0.5"/>
</linearGradient>
<linearGradient id="paint89_linear_721_10654" x1="1455.75" y1="400.254" x2="1513.95" y2="-37.1848" gradientUnits="userSpaceOnUse">
<stop offset="0.7946" stop-color="#B40FE7"/>
<stop offset="1" stop-color="#1BA4E5" stop-opacity="0.5"/>
</linearGradient>
<linearGradient id="paint90_linear_721_10654" x1="1456.73" y1="408.568" x2="1516.2" y2="-38.4357" gradientUnits="userSpaceOnUse">
<stop offset="0.7946" stop-color="#B40FE7"/>
<stop offset="1" stop-color="#1BA4E5" stop-opacity="0.5"/>
</linearGradient>
<linearGradient id="paint91_linear_721_10654" x1="1457.71" y1="416.882" x2="1518.46" y2="-39.687" gradientUnits="userSpaceOnUse">
<stop offset="0.7946" stop-color="#B40FE7"/>
<stop offset="1" stop-color="#1BA4E5" stop-opacity="0.5"/>
</linearGradient>
<linearGradient id="paint92_linear_721_10654" x1="1458.69" y1="425.197" x2="1520.71" y2="-40.9383" gradientUnits="userSpaceOnUse">
<stop offset="0.7946" stop-color="#B40FE7"/>
<stop offset="1" stop-color="#1BA4E5" stop-opacity="0.5"/>
</linearGradient>
<linearGradient id="paint93_linear_721_10654" x1="1459.67" y1="433.512" x2="1522.96" y2="-42.1893" gradientUnits="userSpaceOnUse">
<stop offset="0.7946" stop-color="#B40FE7"/>
<stop offset="1" stop-color="#1BA4E5" stop-opacity="0.5"/>
</linearGradient>
<linearGradient id="paint94_linear_721_10654" x1="1460.65" y1="441.827" x2="1525.22" y2="-43.4406" gradientUnits="userSpaceOnUse">
<stop offset="0.7946" stop-color="#B40FE7"/>
<stop offset="1" stop-color="#1BA4E5" stop-opacity="0.5"/>
</linearGradient>
<linearGradient id="paint95_linear_721_10654" x1="1455.91" y1="440.297" x2="1520.39" y2="-44.3405" gradientUnits="userSpaceOnUse">
<stop offset="0.7946" stop-color="#B40FE7"/>
<stop offset="1" stop-color="#1BA4E5" stop-opacity="0.5"/>
</linearGradient>
<linearGradient id="paint96_linear_721_10654" x1="1451.17" y1="438.767" x2="1515.57" y2="-45.2765" gradientUnits="userSpaceOnUse">
<stop offset="0.7946" stop-color="#B40FE7"/>
<stop offset="1" stop-color="#1BA4E5" stop-opacity="0.5"/>
</linearGradient>
<linearGradient id="paint97_linear_721_10654" x1="1446.42" y1="437.236" x2="1510.74" y2="-46.2127" gradientUnits="userSpaceOnUse">
<stop offset="0.7946" stop-color="#B40FE7"/>
<stop offset="1" stop-color="#1BA4E5" stop-opacity="0.5"/>
</linearGradient>
<linearGradient id="paint98_linear_721_10654" x1="1441.68" y1="435.706" x2="1505.92" y2="-47.1487" gradientUnits="userSpaceOnUse">
<stop offset="0.7946" stop-color="#B40FE7"/>
<stop offset="1" stop-color="#1BA4E5" stop-opacity="0.5"/>
</linearGradient>
<linearGradient id="paint99_linear_721_10654" x1="1436.93" y1="434.176" x2="1501.1" y2="-48.0847" gradientUnits="userSpaceOnUse">
<stop offset="0.7946" stop-color="#B40FE7"/>
<stop offset="1" stop-color="#1BA4E5" stop-opacity="0.5"/>
</linearGradient>
<linearGradient id="paint100_linear_721_10654" x1="1432.19" y1="432.646" x2="1496.27" y2="-49.0208" gradientUnits="userSpaceOnUse">
<stop offset="0.7946" stop-color="#B40FE7"/>
<stop offset="1" stop-color="#1BA4E5" stop-opacity="0.5"/>
</linearGradient>
<linearGradient id="paint101_linear_721_10654" x1="1427.44" y1="431.115" x2="1491.45" y2="-49.9568" gradientUnits="userSpaceOnUse">
<stop offset="0.7946" stop-color="#B40FE7"/>
<stop offset="1" stop-color="#1BA4E5" stop-opacity="0.5"/>
</linearGradient>
<linearGradient id="paint102_linear_721_10654" x1="1422.7" y1="429.585" x2="1486.63" y2="-50.893" gradientUnits="userSpaceOnUse">
<stop offset="0.7946" stop-color="#B40FE7"/>
<stop offset="1" stop-color="#1BA4E5" stop-opacity="0.5"/>
</linearGradient>
<linearGradient id="paint103_linear_721_10654" x1="1417.95" y1="428.055" x2="1481.8" y2="-51.8293" gradientUnits="userSpaceOnUse">
<stop offset="0.7946" stop-color="#B40FE7"/>
<stop offset="1" stop-color="#1BA4E5" stop-opacity="0.5"/>
</linearGradient>
<linearGradient id="paint104_linear_721_10654" x1="1413.21" y1="426.525" x2="1476.98" y2="-52.7651" gradientUnits="userSpaceOnUse">
<stop offset="0.7946" stop-color="#B40FE7"/>
<stop offset="1" stop-color="#1BA4E5" stop-opacity="0.5"/>
</linearGradient>
<linearGradient id="paint105_linear_721_10654" x1="1408.47" y1="424.994" x2="1472.16" y2="-53.7012" gradientUnits="userSpaceOnUse">
<stop offset="0.7946" stop-color="#B40FE7"/>
<stop offset="1" stop-color="#1BA4E5" stop-opacity="0.5"/>
</linearGradient>
<linearGradient id="paint106_linear_721_10654" x1="1403.72" y1="423.464" x2="1467.33" y2="-54.6371" gradientUnits="userSpaceOnUse">
<stop offset="0.7946" stop-color="#B40FE7"/>
<stop offset="1" stop-color="#1BA4E5" stop-opacity="0.5"/>
</linearGradient>
<linearGradient id="paint107_linear_721_10654" x1="1398.98" y1="421.934" x2="1462.51" y2="-55.5736" gradientUnits="userSpaceOnUse">
<stop offset="0.7946" stop-color="#B40FE7"/>
<stop offset="1" stop-color="#1BA4E5" stop-opacity="0.5"/>
</linearGradient>
<linearGradient id="paint108_linear_721_10654" x1="1394.23" y1="420.404" x2="1457.69" y2="-56.5094" gradientUnits="userSpaceOnUse">
<stop offset="0.7946" stop-color="#B40FE7"/>
<stop offset="1" stop-color="#1BA4E5" stop-opacity="0.5"/>
</linearGradient>
<linearGradient id="paint109_linear_721_10654" x1="1389.49" y1="418.873" x2="1452.86" y2="-57.4456" gradientUnits="userSpaceOnUse">
<stop offset="0.7946" stop-color="#B40FE7"/>
<stop offset="1" stop-color="#1BA4E5" stop-opacity="0.5"/>
</linearGradient>
<linearGradient id="paint110_linear_721_10654" x1="1384.74" y1="417.343" x2="1448.04" y2="-58.3818" gradientUnits="userSpaceOnUse">
<stop offset="0.7946" stop-color="#B40FE7"/>
<stop offset="1" stop-color="#1BA4E5" stop-opacity="0.5"/>
</linearGradient>
<linearGradient id="paint111_linear_721_10654" x1="1380" y1="415.813" x2="1443.22" y2="-59.3177" gradientUnits="userSpaceOnUse">
<stop offset="0.7946" stop-color="#B40FE7"/>
<stop offset="1" stop-color="#1BA4E5" stop-opacity="0.5"/>
</linearGradient>
<linearGradient id="paint112_linear_721_10654" x1="1375.25" y1="414.282" x2="1438.39" y2="-60.2539" gradientUnits="userSpaceOnUse">
<stop offset="0.7946" stop-color="#B40FE7"/>
<stop offset="1" stop-color="#1BA4E5" stop-opacity="0.5"/>
</linearGradient>
<linearGradient id="paint113_linear_721_10654" x1="1370.51" y1="412.752" x2="1433.57" y2="-61.19" gradientUnits="userSpaceOnUse">
<stop offset="0.7946" stop-color="#B40FE7"/>
<stop offset="1" stop-color="#1BA4E5" stop-opacity="0.5"/>
</linearGradient>
<linearGradient id="paint114_linear_721_10654" x1="1365.77" y1="411.222" x2="1428.75" y2="-62.1263" gradientUnits="userSpaceOnUse">
<stop offset="0.7946" stop-color="#B40FE7"/>
<stop offset="1" stop-color="#1BA4E5" stop-opacity="0.5"/>
</linearGradient>
<linearGradient id="paint115_linear_721_10654" x1="1361.02" y1="409.692" x2="1423.92" y2="-63.0623" gradientUnits="userSpaceOnUse">
<stop offset="0.7946" stop-color="#B40FE7"/>
<stop offset="1" stop-color="#1BA4E5" stop-opacity="0.5"/>
</linearGradient>
<linearGradient id="paint116_linear_721_10654" x1="1356.28" y1="408.161" x2="1419.1" y2="-63.9983" gradientUnits="userSpaceOnUse">
<stop offset="0.7946" stop-color="#B40FE7"/>
<stop offset="1" stop-color="#1BA4E5" stop-opacity="0.5"/>
</linearGradient>
<linearGradient id="paint117_linear_721_10654" x1="1351.53" y1="406.631" x2="1414.28" y2="-64.9344" gradientUnits="userSpaceOnUse">
<stop offset="0.7946" stop-color="#B40FE7"/>
<stop offset="1" stop-color="#1BA4E5" stop-opacity="0.5"/>
</linearGradient>
<linearGradient id="paint118_linear_721_10654" x1="1346.79" y1="405.101" x2="1409.45" y2="-65.8705" gradientUnits="userSpaceOnUse">
<stop offset="0.7946" stop-color="#B40FE7"/>
<stop offset="1" stop-color="#1BA4E5" stop-opacity="0.5"/>
</linearGradient>
<linearGradient id="paint119_linear_721_10654" x1="1342.01" y1="407.951" x2="1405.17" y2="-66.735" gradientUnits="userSpaceOnUse">
<stop offset="0.7946" stop-color="#B40FE7"/>
<stop offset="1" stop-color="#1BA4E5" stop-opacity="0.5"/>
</linearGradient>
<linearGradient id="paint120_linear_721_10654" x1="1337.18" y1="416.571" x2="1401.59" y2="-67.5048" gradientUnits="userSpaceOnUse">
<stop offset="0.7946" stop-color="#B40FE7"/>
<stop offset="1" stop-color="#1BA4E5" stop-opacity="0.5"/>
</linearGradient>
<linearGradient id="paint121_linear_721_10654" x1="1332.36" y1="425.208" x2="1398.02" y2="-68.2745" gradientUnits="userSpaceOnUse">
<stop offset="0.7946" stop-color="#B40FE7"/>
<stop offset="1" stop-color="#1BA4E5" stop-opacity="0.5"/>
</linearGradient>
<linearGradient id="paint122_linear_721_10654" x1="1327.54" y1="433.825" x2="1394.44" y2="-69.0445" gradientUnits="userSpaceOnUse">
<stop offset="0.7946" stop-color="#B40FE7"/>
<stop offset="1" stop-color="#1BA4E5" stop-opacity="0.5"/>
</linearGradient>
<linearGradient id="paint123_linear_721_10654" x1="1322.71" y1="442.501" x2="1390.88" y2="-69.8134" gradientUnits="userSpaceOnUse">
<stop offset="0.7946" stop-color="#B40FE7"/>
<stop offset="1" stop-color="#1BA4E5" stop-opacity="0.5"/>
</linearGradient>
<linearGradient id="paint124_linear_721_10654" x1="1317.89" y1="451.193" x2="1387.31" y2="-70.5825" gradientUnits="userSpaceOnUse">
<stop offset="0.7946" stop-color="#B40FE7"/>
<stop offset="1" stop-color="#1BA4E5" stop-opacity="0.5"/>
</linearGradient>
<linearGradient id="paint125_linear_721_10654" x1="1313.06" y1="459.892" x2="1383.75" y2="-71.3512" gradientUnits="userSpaceOnUse">
<stop offset="0.7946" stop-color="#B40FE7"/>
<stop offset="1" stop-color="#1BA4E5" stop-opacity="0.5"/>
</linearGradient>
</defs>
</svg>
