<svg width="54" height="54" viewBox="0 0 54 54" fill="none" xmlns="http://www.w3.org/2000/svg">
<path d="M36.7653 36.376C38.6335 36.1858 40.0508 34.6025 39.9863 32.7023C39.922 30.8022 38.3113 29.2821 36.3787 29.2821H36.2499C34.2526 29.3455 32.7066 30.9922 32.771 32.9556C32.8355 33.9057 33.2219 34.7291 33.8017 35.2991C31.6114 39.5428 28.2615 42.6463 23.2365 45.2431C19.8221 47.0166 16.279 47.65 12.7358 47.2068C9.83674 46.8267 7.58195 45.5601 6.16445 43.4697C4.10306 40.3662 3.90986 37.0092 5.6493 33.6524C6.8734 31.2455 8.80585 29.472 10.0299 28.5853C9.77227 27.7619 9.38566 26.3685 9.19246 25.3552C-0.148845 32.0057 0.817578 40.9996 3.65218 45.2431C5.77804 48.4102 10.0944 50.3736 14.8617 50.3736C16.15 50.3736 17.4384 50.2469 18.727 49.9304C26.9731 48.3468 33.2221 43.5331 36.7653 36.376ZM48.1037 28.5221C43.2075 22.885 35.9923 19.7815 27.7461 19.7815H26.7154C26.1356 18.6414 24.9115 17.8813 23.5587 17.8813H23.4297C21.4328 17.9446 19.8868 19.5914 19.9511 21.555C20.0155 23.455 21.626 24.9752 23.5587 24.9752H23.6874C25.1047 24.9118 26.3288 24.025 26.8442 22.8216H28.0038C32.9 22.8216 37.5383 24.215 41.7259 26.9386C44.947 29.0288 47.2662 31.7523 48.5546 35.0458C49.6497 37.706 49.5853 40.3028 48.4256 42.5198C46.6219 45.8766 43.5941 47.7134 39.5999 47.7134C37.023 47.7134 34.575 46.9532 33.2864 46.3832C32.5778 47.0166 31.2893 48.0299 30.3873 48.6635C33.1577 49.9302 35.9923 50.627 38.6979 50.627C44.8825 50.627 49.4565 47.27 51.196 43.9131C53.0642 40.2394 52.9352 33.9057 48.1037 28.5221ZM15.377 37.4525C15.4415 39.3527 17.052 40.8727 18.9846 40.8727H19.1136C21.1107 40.8095 22.6567 39.1626 22.5923 37.1991C22.528 35.2989 20.9173 33.7789 18.9846 33.7789H18.8559C18.727 33.7789 18.5336 33.7789 18.405 33.8421C15.7636 29.5352 14.6685 24.8484 15.0551 19.7813C15.3125 15.981 16.6011 12.6874 18.8559 9.96381C20.7241 7.6203 24.3317 6.48024 26.7799 6.41706C33.6085 6.2903 36.5074 14.6508 36.7008 18.0078C37.5383 18.1978 38.9556 18.6412 39.922 18.9579C39.1488 8.69737 32.7066 3.37695 26.5222 3.37695C20.7241 3.37695 15.377 7.49393 13.251 13.5743C10.2876 21.6815 12.2203 29.472 15.8279 35.6158C15.5059 36.0591 15.3125 36.7559 15.377 37.4527V37.4525Z" fill="#764ABC"/>
</svg>
